<?xml version="1.0" encoding="utf-8"?>
<!-- Generator: Adobe Illustrator 25.1.0, SVG Export Plug-In . SVG Version: 6.00 Build 0)  -->
<svg version="1.1" id="Layer_1" xmlns="http://www.w3.org/2000/svg" xmlns:xlink="http://www.w3.org/1999/xlink" x="0px" y="0px"
	 viewBox="0 0 274.7 253.9" style="enable-background:new 0 0 274.7 253.9;" xml:space="preserve">
<style type="text/css">
	.st0{fill:none;stroke:#C7931B;stroke-miterlimit:10;}
	.st1{fill:none;stroke:#C7931B;stroke-width:4;stroke-miterlimit:10;}
	.st2{enable-background:new    ;}
	.st3{fill:#D1253F;}
	.st4{fill:#243456;}
	.st5{font-family:'Georgia-Bold';}
	.st6{font-size:10.09px;}
	.st7{fill:none;stroke:#C7931B;stroke-width:0.5;stroke-miterlimit:10;}
	.st8{fill:#182B52;}
	.st9{fill:url(#SVGID_1_);}
	.st10{fill:url(#SVGID_2_);}
	.st11{fill:url(#SVGID_3_);}
	.st12{fill:url(#SVGID_4_);}
	.st13{fill:url(#SVGID_5_);}
	.st14{fill:url(#SVGID_6_);}
	.st15{fill:url(#SVGID_7_);}
	.st16{fill:url(#SVGID_8_);}
	.st17{fill:url(#SVGID_9_);}
	.st18{fill:url(#SVGID_10_);}
	.st19{fill:#C7931B;stroke:#243456;stroke-width:0.5;stroke-miterlimit:10;}
	.st20{fill:#D62339;}
	.st21{fill:none;stroke:#243456;stroke-width:0.25;stroke-miterlimit:10;}
	.st22{display:none;opacity:0.4;}
	.st23{display:inline;}
	.st24{fill:none;stroke:#000000;stroke-width:0.25;stroke-miterlimit:10;}
	.st25{display:none;}
	.st26{display:inline;opacity:0.4;}
	.st27{opacity:0.2;}
	.st28{fill:url(#SVGID_11_);}
	.st29{opacity:0.27;}
	.st30{fill:url(#SVGID_12_);}
	.st31{opacity:0.75;}
	.st32{fill:#BFBFBF;}
	.st33{font-family:'FrizQua-ReguOS';}
	.st34{font-size:15.8412px;}
	.st35{font-size:15.84px;}
	.st36{font-size:15.8386px;}
	.st37{font-size:15.8388px;}
	.st38{font-size:15.8391px;}
	.st39{font-size:15.7373px;}
	.st40{fill:#FFFFFF;}
	.st41{display:inline;fill:none;stroke:#000000;stroke-width:0.25;stroke-miterlimit:10;}
	.st42{display:inline;stroke:#000000;stroke-width:0.25;stroke-miterlimit:10;}
	.st43{fill:#F1F2F2;stroke:#243456;stroke-miterlimit:10;}
	.st44{display:none;opacity:0.66;}
	.st45{stroke:#000000;stroke-miterlimit:10;}
	.st46{opacity:0.6;}
	.st47{clip-path:url(#SVGID_14_);}
	.st48{fill:#C7931B;stroke:#243456;stroke-width:0.25;stroke-miterlimit:10;}
	.st49{fill:#C7931B;stroke:#243456;stroke-miterlimit:10;}
	.st50{clip-path:url(#SVGID_16_);}
	.st51{fill:#FEFFFE;}
	.st52{clip-path:url(#SVGID_18_);}
	.st53{fill:none;stroke:#C7931B;stroke-width:0.25;stroke-miterlimit:10;}
	.st54{fill:#C7931B;stroke:#FFFFFF;stroke-width:0.25;stroke-miterlimit:10;}
	.st55{fill:#C7931B;}
	.st56{font-family:'P22MackinacPro-Bold';}
	.st57{font-size:8px;}
	.st58{font-size:7.9687px;}
	.st59{font-size:7.9752px;}
	.st60{font-size:8.0006px;}
	.st61{font-size:8.0323px;}
	.st62{fill:#222147;}
</style>
<g>
	<g id="Brand_Logo">
		<g id="circle-bg">
			<circle class="st0" cx="137.1" cy="126.9" r="120.9"/>
			<circle class="st1" cx="137.1" cy="126.9" r="124.9"/>
		</g>
		<g id="product-branding">
			<g class="st2">
				<path class="st3" d="M73.6,199.5c-0.7,0.8-1,1.7-1.1,2.7c-0.1,1,0.2,2,0.7,2.8c0.6-0.3,1.3-0.5,2-0.6c0.7-0.1,1.4-0.1,2.1,0
					c0.7,0.1,1.3,0.4,1.8,0.8s0.8,1,1,1.8c0.7-0.1,1.4-0.3,2.1-0.5c0.7-0.2,1.4-0.5,2-0.9c0.3-1,0.5-2.1,0.7-3.1
					c0.2-1,0.5-1.9,0.8-2.7c0.3-0.8,0.6-1.5,1-2.2c0.4-0.6,0.9-1.1,1.5-1.4c0.7-0.4,1.4-0.5,2.1-0.4c0.7,0.1,1.2,0.3,1.6,0.7
					s0.6,1,0.7,1.6c0,0.7-0.2,1.4-0.8,2.3c-0.3,0.4-0.6,0.8-1,1.2c-0.4,0.4-0.8,0.8-1.3,1.2s-0.9,0.7-1.4,1
					c-0.5,0.3-0.9,0.6-1.3,0.9c-0.1,1.2-0.3,2.4-0.6,3.6c-0.3,1.2-0.7,2.3-1.1,3.3c-0.5,1-1,2-1.6,2.9c-0.6,0.9-1.4,1.6-2.2,2.3
					c-0.7,0.5-1.5,0.9-2.4,1.3c-0.9,0.3-1.9,0.6-2.8,0.7c-1,0.1-2,0.1-2.9,0c-1-0.1-1.8-0.4-2.6-0.9c-0.8-0.5-1.4-1.1-1.8-2
					c-0.5-0.8-0.7-1.9-0.7-3.2c0-0.7,0.1-1.4,0.3-2.1c0.2-0.7,0.5-1.4,0.9-2c0.4-0.6,0.9-1.2,1.4-1.8c0.6-0.5,1.2-1,1.8-1.3
					c-0.3-0.5-0.6-1-0.7-1.6s-0.2-1.2-0.1-1.8s0.2-1.1,0.5-1.7c0.3-0.5,0.6-1,1-1.5c0.1-0.1,0.2-0.1,0.3-0.1c0.3,0,0.4,0.1,0.4,0.4
					c0,0.1,0,0.2-0.1,0.3C73.8,199.5,73.7,199.5,73.6,199.5z M80.1,207.8c0,0.7-0.1,1.4-0.3,2.1c-0.3,0.7-0.6,1.4-1,2
					c-0.4,0.6-0.9,1.2-1.4,1.7c-0.6,0.5-1.1,0.9-1.7,1.1c0,0-0.1,0-0.2,0.1c-0.1,0-0.1,0-0.2,0c-0.2,0-0.3,0-0.3-0.1
					c-0.1-0.1-0.1-0.2-0.1-0.3c0-0.1,0.1-0.2,0.2-0.3c0.1-0.1,0.2-0.1,0.4,0c0.5-0.2,1-0.5,1.5-1c0.5-0.4,0.9-1,1.3-1.5
					c0.4-0.6,0.7-1.1,0.9-1.8c0.2-0.6,0.3-1.2,0.3-1.8c-1,0.1-2,0.1-2.9,0c-1-0.1-1.9-0.5-2.7-1.1h0c-0.4,0.3-0.8,0.6-1.2,1.1
					c-0.4,0.4-0.8,0.9-1.1,1.5c-0.3,0.5-0.6,1.1-0.9,1.8c-0.2,0.6-0.4,1.2-0.5,1.8c-0.2,1.2-0.1,2.2,0.2,3c0.3,0.7,0.7,1.3,1.3,1.6
					s1.3,0.5,2,0.5c0.8,0,1.6-0.1,2.4-0.3s1.6-0.6,2.3-1c0.7-0.4,1.3-0.9,1.8-1.5c0.5-0.6,1-1.2,1.4-1.9c0.4-0.7,0.8-1.4,1.1-2.1
					c0.3-0.8,0.6-1.5,0.8-2.3c0.2-0.8,0.4-1.6,0.6-2.4c-0.6,0.3-1.2,0.5-1.9,0.7C81.4,207.5,80.7,207.7,80.1,207.8z M74.4,206.3
					c0.8,0.5,1.6,0.9,2.4,0.9s1.7,0,2.6-0.1c-0.1-0.6-0.2-1-0.5-1.3s-0.6-0.4-1-0.5c-0.4-0.1-0.8-0.1-1.2,0
					c-0.4,0.1-0.8,0.2-1.1,0.3c-0.3,0.1-0.6,0.3-0.8,0.4C74.5,206.3,74.4,206.3,74.4,206.3z M91.2,200.2c0.4-0.6,0.6-1.2,0.5-1.7
					c0-0.5-0.2-1-0.5-1.3c-0.3-0.3-0.6-0.4-1.1-0.4c-0.4,0-0.8,0.3-1.2,0.7c-0.5,0.7-1,1.6-1.2,2.7c-0.3,1.1-0.5,2.4-0.8,3.7
					c0.3-0.2,0.7-0.5,1.1-0.8c0.4-0.3,0.8-0.6,1.2-0.9c0.4-0.3,0.7-0.7,1.1-1C90.7,200.8,91,200.5,91.2,200.2z"/>
				<path class="st3" d="M101.3,204.6c-0.3,0.5-0.8,1.3-1.4,2.2c-0.6,1-1.2,1.9-1.8,3c-0.6,1-1.2,2-1.6,3c-0.5,1-0.8,1.7-0.9,2.3
					c-0.1,0.5,0,0.8,0.1,1c0.2,0.2,0.4,0.3,0.6,0.3c0.4,0,0.7-0.1,1.1-0.4c0.4-0.2,0.7-0.5,1-0.8c0.3-0.3,0.6-0.7,0.8-1
					c0.3-0.4,0.5-0.7,0.7-0.9l1.5-2.4h0.8l-1.8,2.8c-0.3,0.4-0.5,0.8-0.8,1.1c-0.3,0.4-0.6,0.7-1,1.1c-0.4,0.3-0.7,0.6-1.2,0.9
					c-0.4,0.2-0.9,0.4-1.4,0.4c-0.4,0-0.8,0-1.2-0.2c-0.4-0.1-0.7-0.4-0.9-0.7c-0.3-0.3-0.4-0.7-0.5-1.2c-0.1-0.5,0-1.1,0.1-1.7
					c-0.4,0.6-0.8,1.1-1.2,1.6c-0.4,0.5-0.7,0.9-1.1,1.2c-0.4,0.3-0.7,0.6-1.1,0.8c-0.4,0.2-0.8,0.3-1.2,0.3c-0.8,0-1.4-0.3-1.7-0.8
					c-0.3-0.5-0.5-1.2-0.4-2.1c0.1-0.8,0.3-1.7,0.6-2.7c0.4-1,0.9-1.9,1.5-2.8c0.6-0.9,1.3-1.7,2-2.4c0.8-0.7,1.5-1.2,2.3-1.5
					c0.4-0.1,0.8-0.2,1.2-0.2s0.8,0.1,1.1,0.2c0.3,0.1,0.6,0.4,0.8,0.7c0.2,0.3,0.4,0.7,0.4,1.2l1.3-2.1H101.3z M96.4,207.7
					c0-0.2,0-0.5-0.1-0.8c0-0.3-0.1-0.6-0.3-0.8c-0.1-0.2-0.3-0.4-0.5-0.5s-0.5,0-0.8,0.2c-0.4,0.2-0.9,0.7-1.4,1.3
					c-0.5,0.6-1,1.3-1.6,2.1c-0.5,0.8-1,1.6-1.4,2.5c-0.4,0.9-0.8,1.6-1,2.3c-0.2,0.7-0.4,1.3-0.4,1.7c0,0.5,0.2,0.7,0.5,0.7
					c0.3,0,0.7-0.2,1.1-0.5c0.4-0.4,0.9-0.8,1.3-1.4c0.5-0.6,0.9-1.2,1.4-1.9c0.5-0.7,0.9-1.3,1.3-2c0.4-0.6,0.8-1.2,1.1-1.8
					C96,208.4,96.2,208,96.4,207.7z"/>
				<path class="st3" d="M96.8,223.3h-3l5.8-9.5l5.2-8.5h-1.5l0.4-0.7h1.5c0.4-0.6,0.9-1.3,1.4-2.1c0.5-0.8,1.1-1.5,1.7-2.1
					c0.6-0.6,1.3-1.2,2.1-1.6c0.8-0.4,1.6-0.5,2.4-0.4c0.3,0,0.5,0.1,0.8,0.3c0.2,0.2,0.4,0.4,0.5,0.7c0.1,0.3,0.1,0.6,0,1
					c-0.1,0.4-0.3,0.8-0.6,1.3c-0.1,0.1-0.1,0.2-0.2,0.2s-0.2,0-0.3-0.1s-0.2-0.1-0.2-0.2c-0.1-0.1-0.1-0.1-0.1-0.1
					c0.3-0.4,0.5-0.7,0.6-1c0.1-0.2,0.2-0.5,0.2-0.7s-0.1-0.4-0.4-0.5c-0.4-0.1-0.8,0-1.3,0.4c-0.5,0.4-0.9,0.9-1.4,1.4
					c-0.4,0.6-0.9,1.2-1.3,1.8c-0.4,0.6-0.7,1.2-1,1.6h3.4l-0.4,0.7h-3.4l-3.3,5.5L96.8,223.3z"/>
				<path class="st3" d="M118.5,212.5c-0.6,0.9-1.2,1.8-1.8,2.5s-1.4,1.3-2.3,1.6c-0.9,0.4-1.7,0.5-2.5,0.5s-1.5-0.2-2-0.5
					c-0.6-0.4-1-0.9-1.2-1.6c-0.3-0.7-0.3-1.6-0.1-2.6c0.1-0.8,0.5-1.6,0.9-2.6s1-1.8,1.7-2.7c0.7-0.8,1.4-1.5,2.3-2
					c0.9-0.5,1.8-0.7,2.7-0.6c0.5,0.1,0.9,0.3,1.2,0.6s0.5,0.8,0.6,1.4c0,0.5-0.1,0.9-0.3,1.4c-0.2,0.5-0.6,1-1.1,1.4
					c-0.5,0.4-1.2,0.8-1.9,1c-0.8,0.3-1.7,0.4-2.7,0.4c-0.6,1.2-1,2.3-1,3.3c0,0.6,0,1,0.2,1.4s0.4,0.6,0.7,0.8
					c0.3,0.2,0.7,0.2,1.1,0.2c0.4,0,0.8-0.1,1.3-0.3c0.8-0.3,1.5-0.9,2.2-1.6c0.6-0.7,1.2-1.4,1.6-2.1c0.2-0.3,0.3-0.5,0.5-0.8
					c0.2-0.3,0.3-0.5,0.5-0.7h0.8L118.5,212.5z M112,210.2c1.2,0,2.1-0.2,2.9-0.6c0.7-0.4,1.3-0.9,1.7-1.4s0.6-1,0.6-1.5
					c0-0.5-0.1-0.8-0.3-1c-0.2-0.1-0.4-0.2-0.7-0.1c-0.3,0.1-0.6,0.2-1,0.6c-0.4,0.3-0.9,0.8-1.4,1.5
					C113.1,208.3,112.6,209.1,112,210.2z"/>
				<path class="st3" d="M130.8,210.1l-0.9,1.6h-9.1l0.9-1.6H130.8z"/>
				<path class="st3" d="M133.7,218.8c-0.2,0-0.4,0-0.6-0.1c-0.2,0-0.3-0.2-0.3-0.4c0-0.2,0.1-0.3,0.3-0.3c0.2-0.1,0.3,0,0.4,0.1
					c0.9,0,1.7-0.3,2.5-0.8c0.8-0.5,1.5-1.2,2.2-2c0.7-0.8,1.4-1.8,2-2.9c0.6-1.1,1.3-2.2,2-3.4c0.7-1.2,1.3-2.4,1.9-3.5
					c0.6-1.2,1.3-2.2,2-3.2s1.5-1.9,2.4-2.7s1.9-1.4,3.1-1.8h0c-1.7-0.4-3.4-0.5-5-0.3c-1.7,0.2-3.2,0.7-4.6,1.5
					c-1.4,0.8-2.7,1.7-3.8,2.9c-1.1,1.2-2,2.6-2.6,4.2c-0.3,0.8-0.5,1.5-0.6,2.1c-0.1,0.6,0,1.2,0.2,1.5c0.2,0.4,0.6,0.6,1.1,0.5
					c0.5,0,1.3-0.3,2.2-0.9c0.6-0.4,1.3-0.9,1.9-1.6s1.2-1.4,1.7-2.1c0.5-0.8,0.9-1.6,1.3-2.4c0.3-0.8,0.5-1.7,0.6-2.4
					c-0.1-0.1-0.1-0.2-0.1-0.3c0-0.1,0.1-0.2,0.2-0.3c0.1-0.1,0.2-0.1,0.4-0.1c0.1,0,0.2,0.1,0.3,0.3c0,0.1,0,0.2,0,0.3
					c0,0.9-0.2,1.7-0.6,2.6c-0.4,0.9-0.8,1.8-1.3,2.6c-0.5,0.8-1.2,1.6-1.8,2.3s-1.4,1.3-2.1,1.7c-1.1,0.7-2.1,1-3,1
					c-0.8,0-1.5-0.3-2-0.9c-0.5-0.5-0.7-1.3-0.8-2.2c-0.1-1,0.2-2,0.6-3.1c0.6-1.5,1.4-2.7,2.4-3.8s2-1.9,3.1-2.5
					c1.2-0.7,2.4-1.2,3.8-1.5c1.3-0.3,2.7-0.6,4.2-0.7c0.7,0,1.5,0,2.4,0s1.8,0.1,2.8,0.2s1.9,0.1,2.9,0.2c1,0.1,1.9,0.1,2.8,0.1
					c0.9,0,1.8,0,2.6-0.1c0.8-0.1,1.5-0.2,2.1-0.4c0,0.7-0.2,1.2-0.6,1.5c-0.4,0.3-0.9,0.5-1.5,0.5c-0.6,0.1-1.2,0.1-2,0
					c-0.7-0.1-1.4-0.2-2.1-0.3c-0.7-0.1-1.4-0.1-2-0.1s-1.1,0.1-1.5,0.3c-1,0.6-1.9,1.4-2.7,2.4c-0.8,1-1.5,2-2.2,3.1
					s-1.3,2.3-1.9,3.5s-1.2,2.4-1.9,3.6c-0.6,1.2-1.3,2.3-2,3.3s-1.5,1.9-2.3,2.7c-0.8,0.8-1.8,1.4-2.9,1.8
					C136.3,218.7,135.1,218.9,133.7,218.8z"/>
				<path class="st3" d="M161.6,210.1l-0.9,1.6h-9.1l0.9-1.6H161.6z"/>
				<path class="st3" d="M169.3,199.5c-0.7,0.8-1,1.7-1.1,2.7c-0.1,1,0.2,2,0.7,2.8c0.6-0.3,1.3-0.5,2-0.6s1.4-0.1,2.1,0
					c0.7,0.1,1.3,0.4,1.8,0.8c0.5,0.4,0.8,1,1,1.8c0.7-0.1,1.4-0.3,2.1-0.5c0.7-0.2,1.4-0.5,2-0.9c0.3-1,0.5-2.1,0.7-3.1
					c0.2-1,0.5-1.9,0.8-2.7c0.3-0.8,0.6-1.5,1-2.2c0.4-0.6,0.9-1.1,1.5-1.4c0.7-0.4,1.4-0.5,2.1-0.4c0.7,0.1,1.2,0.3,1.6,0.7
					c0.4,0.4,0.6,1,0.7,1.6c0,0.7-0.2,1.4-0.8,2.3c-0.3,0.4-0.6,0.8-1,1.2c-0.4,0.4-0.8,0.8-1.3,1.2c-0.5,0.4-0.9,0.7-1.4,1
					c-0.5,0.3-0.9,0.6-1.3,0.9c-0.1,1.2-0.3,2.4-0.6,3.6c-0.3,1.2-0.7,2.3-1.1,3.3c-0.5,1-1,2-1.6,2.9c-0.6,0.9-1.4,1.6-2.2,2.3
					c-0.7,0.5-1.5,0.9-2.4,1.3c-0.9,0.3-1.9,0.6-2.8,0.7c-1,0.1-2,0.1-2.9,0s-1.8-0.4-2.6-0.9s-1.4-1.1-1.8-2
					c-0.5-0.8-0.7-1.9-0.7-3.2c0-0.7,0.1-1.4,0.3-2.1s0.5-1.4,0.9-2c0.4-0.6,0.9-1.2,1.4-1.8c0.6-0.5,1.2-1,1.8-1.3
					c-0.3-0.5-0.6-1-0.7-1.6c-0.1-0.6-0.2-1.2-0.1-1.8s0.2-1.1,0.5-1.7c0.2-0.5,0.6-1,1-1.5c0.1-0.1,0.2-0.1,0.3-0.1
					c0.3,0,0.4,0.1,0.4,0.4c0,0.1,0,0.2-0.1,0.3C169.4,199.5,169.4,199.5,169.3,199.5z M175.8,207.8c0,0.7-0.1,1.4-0.3,2.1
					s-0.6,1.4-1,2c-0.4,0.6-0.9,1.2-1.4,1.7c-0.6,0.5-1.1,0.9-1.7,1.1c0,0-0.1,0-0.2,0.1s-0.1,0-0.2,0c-0.2,0-0.3,0-0.3-0.1
					c-0.1-0.1-0.1-0.2-0.1-0.3c0-0.1,0.1-0.2,0.2-0.3s0.2-0.1,0.4,0c0.5-0.2,1-0.5,1.5-1s0.9-1,1.3-1.5c0.4-0.6,0.7-1.1,0.9-1.8
					c0.2-0.6,0.3-1.2,0.3-1.8c-1,0.1-2,0.1-2.9,0c-1-0.1-1.9-0.5-2.7-1.1h0c-0.4,0.3-0.8,0.6-1.2,1.1c-0.4,0.4-0.8,0.9-1.1,1.5
					c-0.3,0.5-0.6,1.1-0.9,1.8c-0.2,0.6-0.4,1.2-0.5,1.8c-0.2,1.2-0.1,2.2,0.2,3c0.3,0.7,0.7,1.3,1.3,1.6c0.6,0.4,1.3,0.5,2,0.5
					c0.8,0,1.6-0.1,2.4-0.3c0.8-0.2,1.6-0.6,2.3-1s1.3-0.9,1.8-1.5c0.5-0.6,1-1.2,1.4-1.9c0.4-0.7,0.8-1.4,1.1-2.1
					c0.3-0.8,0.6-1.5,0.8-2.3s0.4-1.6,0.6-2.4c-0.6,0.3-1.2,0.5-1.9,0.7C177.1,207.5,176.4,207.7,175.8,207.8z M170.1,206.3
					c0.8,0.5,1.6,0.9,2.4,0.9c0.8,0.1,1.7,0,2.6-0.1c-0.1-0.6-0.2-1-0.5-1.3s-0.6-0.4-1-0.5c-0.4-0.1-0.8-0.1-1.2,0
					c-0.4,0.1-0.8,0.2-1.1,0.3c-0.3,0.1-0.6,0.3-0.8,0.4C170.2,206.3,170.1,206.3,170.1,206.3z M186.9,200.2
					c0.4-0.6,0.6-1.2,0.5-1.7c0-0.5-0.2-1-0.5-1.3c-0.3-0.3-0.6-0.4-1.1-0.4c-0.4,0-0.8,0.3-1.2,0.7c-0.5,0.7-1,1.6-1.2,2.7
					c-0.3,1.1-0.5,2.4-0.8,3.7c0.3-0.2,0.7-0.5,1.1-0.8c0.4-0.3,0.8-0.6,1.2-0.9c0.4-0.3,0.7-0.7,1.1-1
					C186.4,200.8,186.7,200.5,186.9,200.2z"/>
			</g>
			<g class="st2">
				<path class="st3" d="M190.7,204.6c-0.3,0.5-0.8,1.3-1.4,2.2s-1.2,1.9-1.8,3c-0.6,1-1.2,2-1.6,3c-0.5,1-0.8,1.7-0.9,2.3
					c-0.1,0.5,0,0.8,0.1,1c0.2,0.2,0.4,0.3,0.6,0.3c0.4,0,0.7-0.1,1.1-0.4c0.4-0.2,0.7-0.5,1-0.8c0.3-0.3,0.6-0.7,0.8-1
					c0.2-0.4,0.5-0.7,0.7-0.9l1.5-2.4h0.8l-1.8,2.8c-0.3,0.4-0.5,0.8-0.8,1.1c-0.3,0.4-0.6,0.7-1,1.1c-0.4,0.3-0.7,0.6-1.2,0.9
					c-0.4,0.2-0.9,0.4-1.4,0.4c-0.4,0-0.8,0-1.2-0.2c-0.4-0.1-0.7-0.4-0.9-0.7c-0.3-0.3-0.4-0.7-0.5-1.2c-0.1-0.5,0-1.1,0.1-1.7
					c-0.4,0.6-0.8,1.1-1.2,1.6c-0.4,0.5-0.7,0.9-1.1,1.2c-0.4,0.3-0.7,0.6-1.1,0.8c-0.4,0.2-0.8,0.3-1.2,0.3c-0.8,0-1.4-0.3-1.7-0.8
					c-0.3-0.5-0.5-1.2-0.4-2.1c0.1-0.8,0.3-1.7,0.6-2.7c0.4-1,0.9-1.9,1.5-2.8c0.6-0.9,1.3-1.7,2-2.4c0.8-0.7,1.5-1.2,2.3-1.5
					c0.4-0.1,0.8-0.2,1.2-0.2s0.8,0.1,1.1,0.2s0.6,0.4,0.8,0.7c0.2,0.3,0.4,0.7,0.4,1.2l1.3-2.1H190.7z M185.8,207.7
					c0-0.2,0-0.5-0.1-0.8c0-0.3-0.1-0.6-0.3-0.8c-0.1-0.2-0.3-0.4-0.5-0.5c-0.2-0.1-0.5,0-0.8,0.2c-0.4,0.2-0.9,0.7-1.4,1.3
					c-0.5,0.6-1,1.3-1.6,2.1c-0.5,0.8-1,1.6-1.4,2.5c-0.4,0.9-0.8,1.6-1,2.3s-0.4,1.3-0.4,1.7c0,0.5,0.2,0.7,0.5,0.7
					c0.3,0,0.7-0.2,1.1-0.5c0.4-0.4,0.9-0.8,1.3-1.4c0.5-0.6,0.9-1.2,1.4-1.9c0.5-0.7,0.9-1.3,1.3-2c0.4-0.6,0.8-1.2,1.1-1.8
					C185.4,208.4,185.7,208,185.8,207.7z"/>
			</g>
			<g class="st2">
				<path class="st3" d="M194.3,208.2c-0.5,0.7-0.9,1.5-1.4,2.3c-0.4,0.8-0.9,1.5-1.2,2.2c-0.2,0.5-0.4,0.9-0.6,1.3
					c-0.2,0.4-0.3,0.8-0.3,1c-0.1,0.4,0,0.7,0.1,0.9s0.3,0.3,0.5,0.4s0.4,0,0.7,0c0.3-0.1,0.5-0.2,0.8-0.4c0.5-0.3,1-0.8,1.4-1.3
					c0.4-0.6,0.8-1,1-1.4l1.5-2.4h0.8l-1.8,2.8c-0.3,0.4-0.5,0.8-0.8,1.1s-0.6,0.7-1,1.1c-0.4,0.3-0.7,0.6-1.2,0.9s-0.9,0.4-1.3,0.4
					c-0.7,0.1-1.2,0-1.7-0.3c-0.4-0.2-0.7-0.6-0.9-1c-0.2-0.4-0.3-0.9-0.2-1.4c0-0.5,0.1-1.1,0.3-1.6c0.2-0.7,0.5-1.4,0.9-2.1
					s0.7-1.3,1-1.8c1.1-1.8,2.1-3.5,3.2-5.2c1.1-1.7,2.1-3.5,3.2-5.3h3L194.3,208.2z"/>
				<path class="st3" d="M205.3,201.5c-0.6,1-1.3,2.1-1.9,3.1h2.3l-0.4,0.7h-2.3l-1.8,2.9c-0.5,0.7-0.9,1.5-1.4,2.3
					c-0.4,0.8-0.9,1.5-1.2,2.2c-0.2,0.5-0.4,0.9-0.6,1.3c-0.2,0.4-0.3,0.8-0.3,1c-0.1,0.4,0,0.7,0.1,0.9s0.3,0.3,0.5,0.4
					c0.2,0.1,0.4,0,0.7,0c0.2-0.1,0.5-0.2,0.8-0.4c0.5-0.3,1-0.8,1.4-1.3c0.4-0.6,0.8-1,1-1.4l1.5-2.4h0.8l-1.8,2.8
					c-0.3,0.4-0.5,0.8-0.8,1.1s-0.6,0.7-1,1.1c-0.4,0.3-0.7,0.6-1.2,0.9s-0.9,0.4-1.3,0.4c-0.7,0.1-1.2,0-1.7-0.3
					c-0.4-0.2-0.7-0.6-0.9-1c-0.2-0.4-0.3-0.9-0.3-1.4c0-0.5,0.1-1.1,0.3-1.6c0.2-0.7,0.5-1.4,0.9-2.1s0.7-1.3,1-1.8l2.2-3.6h-1.8
					l0.4-0.7h1.8l3.8-6.2h3C206.5,199.4,205.9,200.5,205.3,201.5z"/>
			</g>
			<text transform="matrix(1 0 0 1 110.3515 233.88)" class="st4 st5 st6">since 1893</text>
			<g id="Windsor">
				<polygon id="underline" class="st7" points="215.1,186.4 44.3,186.4 44.3,186.2 214.9,186.2 				"/>
				<g id="text">
					<path class="st8" d="M73,182.8l-2-0.9c-1.6-0.8-3-1.9-4-3.4c-0.6-1.1-1.1-2.4-1.3-3.7l-2.9-11.6l-4,19.5l-2-0.7
						c-1.7-0.8-3.1-2-4.2-3.5c-0.7-1.1-1.2-2.3-1.4-3.6l-5-21.4c-0.2-0.9-0.6-1.7-1.1-2.4c-0.3-0.5-0.7-1.1-1.1-1.5h9
						c0,0.4-0.7-0.6,0.2,3.7c0.2,0.8,0.3,1.2,0.4,2.1l3.7,17.1l3.3-16.3c0.2-2-0.2-4-1.2-5.7c-0.2-0.3-0.4-0.6-0.6-0.9h8.5
						c-0.2,0.3-0.3,0.6-0.4,0.9c-0.1,0.8,0,1.7,0.2,2.5l4.5,19.3l3.6-16.1c0.3-0.9,0.4-1.8,0.4-2.7c0-1.4-0.5-2.8-1.4-3.9h6.9
						L73,182.8z"/>
					<path class="st8" d="M83.4,181.9c0.3-0.2,0.6-0.4,0.8-0.7c0.7-1,1.1-2.2,1-3.4v-24.6c0-0.7-0.2-1.5-0.5-2.1s-0.8-1.1-1.3-1.5
						h10.8c-0.5,0.4-0.9,1-1.2,1.6c-0.3,0.7-0.5,1.4-0.5,2.1v23.5c-0.2,1.3,0,2.5,0.5,3.7c0.3,0.6,0.7,1.1,1.2,1.5H83.4V181.9z"/>
					<path class="st8" d="M120.9,151.7c-0.4,0.9-0.6,1.8-0.6,2.8v28.7c-1.5-0.3-2.9-0.9-4.2-1.8c-1.9-1.1-3.4-2.7-4.6-4.5l-8.9-15.1
						v15.1c-0.1,1.2,0.2,2.5,0.8,3.6c0.3,0.5,0.6,1,1,1.5h-7.7c0.4-0.4,0.7-0.9,1-1.5c0.5-1.1,0.8-2.3,0.8-3.6v-20.5
						c0.1-1.3-0.1-2.6-0.6-3.9c-0.4-1-1-2-1.7-2.8h8.1l11.9,20.1v-15.2c0-0.9-0.2-1.8-0.6-2.6c-0.3-0.8-0.7-1.5-1.2-2.2h7.5
						C121.6,150.3,121.2,151,120.9,151.7z"/>
					<path class="st8" d="M135.7,181.9h-11.8c0.4-0.2,0.7-0.2,1-0.6c0.7-1,1.1-2.2,1-3.4v-24.6c0-0.8-0.2-1.6-0.6-2.2
						c-0.3-0.6-0.7-1.1-1.1-1.5h12.7c7.7,0,13,7.7,12.9,16.7C149.5,175.5,144.9,181.9,135.7,181.9z M134,155.1l-1.2,0.3v21.3
						l1.2,0.6c5.8,2.7,8-5.2,8.1-11S140.1,153.7,134,155.1z"/>
					<path class="st8" d="M159.5,182.7c-2.3,0-4.6-0.5-6.6-1.5l-1-0.4l-1.1-6.7l2.8,2c1.6,1.2,3.6,1.7,5.6,1.7
						c2.1-0.1,3.7-1.1,3.7-3.5c0-1.8-1.1-3.4-2.7-4.2l-2.7-1.7c-4.5-2.8-6.4-5.3-6.3-10.3c0.1-5.5,4.3-8.6,9.3-8.8
						c1.5,0,3,0.2,4.4,0.6l2.4,0.8v5.7l-1.5-1.1c-1.1-0.7-2.4-1.1-3.6-1.2c-1.6-0.3-3.1,0.7-3.5,2.2c-0.8,2.6,1.3,3.7,4,5.3l2.5,1.5
						c3.1,1.9,5,5.3,5,9C170.2,178.5,165.5,182.6,159.5,182.7z"/>
					<path class="st8" d="M185.6,182.8c-8.4,0-13.7-7.7-13.7-16.7c0-9.5,5.9-17,14.5-17c8.2,0,14.3,6.4,14.3,16.1
						C200.7,176.4,194.4,182.8,185.6,182.8z M185.9,154.1c-4.3,0-6.5,4.9-6.5,10.6c0,6.5,2.6,13.3,7,13.3c4.8,0,6.6-5,6.6-10.4
						C193.1,161,191,154.1,185.9,154.1z"/>
					<path class="st8" d="M227.2,188c-1.2,0-3.7,0.9-5.4-0.2c-1.2-0.8-6.3-9.1-6.5-9.6l-4.2-10v8.3c-0.1,1.2,0,2.5,0.4,3.6
						c0.2,0.7,0.7,1.3,1.3,1.8H202c0.3-0.2,0.5-0.4,0.7-0.7c0.8-1,1.2-2.2,1.1-3.5v-24.6c-0.1-0.9-0.4-1.8-0.8-2.6
						c-0.2-0.4-0.5-0.7-0.9-0.9h12.4c5.6,0,7.7,4.5,7.6,9c0,3.1-1.7,5.8-4.4,7.3l-0.3,0.2l0.6,1.3c2.6,5.2,3.2,7.3,5,10.6
						c0.9,1.6,5.9,8.7,7,10L227.2,188z M212.1,154.6H211v11c1.7-0.2,4-2.3,4.1-5.7C215.2,157,214.2,154.7,212.1,154.6L212.1,154.6z"
						/>
				</g>
				<g id="highlight">
					
						<linearGradient id="SVGID_1_" gradientUnits="userSpaceOnUse" x1="33.58" y1="269.8" x2="70.86" y2="269.8" gradientTransform="matrix(1 0 0 -1 10.21 436)">
						<stop  offset="0" style="stop-color:#FFFFFF"/>
						<stop  offset="9.000000e-02" style="stop-color:#FFFFFF;stop-opacity:0.97"/>
						<stop  offset="0.22" style="stop-color:#FFFFFF;stop-opacity:0.88"/>
						<stop  offset="0.39" style="stop-color:#FFFFFF;stop-opacity:0.74"/>
						<stop  offset="0.58" style="stop-color:#FFFFFF;stop-opacity:0.54"/>
						<stop  offset="0.79" style="stop-color:#FFFFFF;stop-opacity:0.28"/>
						<stop  offset="1" style="stop-color:#FFFFFF;stop-opacity:0"/>
					</linearGradient>
					<path class="st9" d="M72.7,182.9l-1.4-0.6c-0.5-0.2-0.9-0.4-1.3-0.6c-0.8-0.5-1.6-1.1-2.3-1.8c-1.4-1.4-1.9-3.4-2.3-5.3
						l-2.7-11.3h0.2L59,182.9v0.2l-0.2-0.1c-0.7-0.3-1.5-0.5-2.2-0.9s-1.4-0.8-2-1.3s-1.2-1.1-1.7-1.7c-0.5-0.7-0.8-1.4-1.1-2.1
						c-0.5-1.5-0.7-3.1-1.1-4.6l-1-4.6l-2.1-9.2l-1-4.6c-0.4-1.5-1.2-2.9-2.1-4.1l-0.2-0.4h0.4h8.7h0.3v0.2c0,0.1,0,0.1,0,0.2
						c0,0.1-0.1,0.1-0.2,0.1l0,0c0,0.1,0,0.2,0,0.3c0,0.2,0,0.5,0.1,0.7c0.1,0.5,0.2,1,0.2,1.4l0.6,2.9l1.1,5.7l2.4,11.4h-0.6
						l2.2-11.6L60,158l0.3-1.4c0.1-0.5,0.2-0.9,0.1-1.4c0-1-0.2-1.9-0.4-2.8c-0.1-0.5-0.3-0.9-0.5-1.3c0-0.1-0.1-0.2-0.2-0.3
						l-0.2-0.3c-0.1-0.2-0.2-0.4-0.4-0.6l-0.5-0.6H59h8.2h0.6l-0.2,0.5c-0.1,0.2-0.2,0.4-0.3,0.6c0,0.2-0.1,0.4-0.1,0.6
						c0,0.5,0,0.9,0.1,1.4l0.6,2.8l1.2,5.7l2.6,11.3H71l2.5-11.4l1.3-5.7c0.2-0.9,0.2-1.9,0-2.8c-0.2-0.9-0.6-1.8-1.2-2.5l-0.4-0.5
						h0.6h6.7h0.3l-0.1,0.3L72.7,182.9z M72.7,182.9l7.7-33.2l0.3,0.3H74l0.2-0.5c0.6,0.8,1.1,1.7,1.3,2.7c0.2,1,0.2,2,0,3l-1.2,5.8
						l-2.5,11.4l-0.4,1.6l-0.4-1.7L68.5,161l-1.3-5.6l-0.6-2.8c-0.1-0.5-0.1-1-0.1-1.5c0-0.3,0-0.6,0.1-0.8s0.2-0.5,0.3-0.7l0.4,0.5
						H59l0.3-0.6c0.2,0.2,0.3,0.4,0.5,0.6l0.2,0.3c0.1,0.1,0.2,0.2,0.2,0.4c0.2,0.5,0.4,0.9,0.5,1.4c0.3,1,0.4,2,0.4,3
						c0,0.5,0,1-0.2,1.5l-0.3,1.4L60,161l-2.3,11.6l-0.3,1.4l-0.3-1.4l-2.4-11.4l-1.2-5.7l-0.6-2.9c-0.1-0.5-0.2-1-0.2-1.5
						c0-0.3-0.1-0.5-0.1-0.8c0-0.1,0-0.3,0-0.4c0-0.1,0.1-0.2,0.2-0.3l0,0l0,0l0.2,0.2h-8.7l0.2-0.4c1,1.3,1.8,2.7,2.2,4.3l1,4.6
						l2.1,9.2l1,4.6c0.4,1.5,0.6,3.1,1.1,4.6c0.2,0.7,0.6,1.4,1,2.1c0.5,0.6,1,1.2,1.6,1.7s1.3,0.9,1.9,1.3c0.7,0.3,1.5,0.6,2.2,0.8
						l-0.2,0.1l3.9-19.5l0.1-0.4l0.1,0.4l2.7,11.3c0.2,0.9,0.4,1.9,0.8,2.8c0.3,0.9,0.8,1.7,1.5,2.4s1.4,1.3,2.3,1.8
						c0.4,0.2,0.8,0.5,1.3,0.6L72.7,182.9z"/>
					
						<linearGradient id="SVGID_2_" gradientUnits="userSpaceOnUse" x1="72.37" y1="270" x2="85.65" y2="270" gradientTransform="matrix(1 0 0 -1 10.21 436)">
						<stop  offset="0" style="stop-color:#FFFFFF"/>
						<stop  offset="9.000000e-02" style="stop-color:#FFFFFF;stop-opacity:0.97"/>
						<stop  offset="0.22" style="stop-color:#FFFFFF;stop-opacity:0.88"/>
						<stop  offset="0.39" style="stop-color:#FFFFFF;stop-opacity:0.74"/>
						<stop  offset="0.58" style="stop-color:#FFFFFF;stop-opacity:0.54"/>
						<stop  offset="0.79" style="stop-color:#FFFFFF;stop-opacity:0.28"/>
						<stop  offset="1" style="stop-color:#FFFFFF;stop-opacity:0"/>
					</linearGradient>
					<path class="st10" d="M83.8,182c0.6-0.4,1.1-1,1.4-1.6s0.4-1.3,0.4-2v-4.2l-0.1-8.4l-0.1-8.4v-4.2c0-0.7-0.2-1.3-0.5-1.9
						c-0.3-0.6-0.7-1.1-1.3-1.5l-0.7-0.4h0.9h10.9h0.9L95,150c-0.5,0.4-0.9,1-1.2,1.6c-0.2,0.6-0.4,1.2-0.4,1.9v4.2v8.4
						c0,2.8,0,5.6,0,8.4v4.2c0,0.7,0.1,1.3,0.4,1.9c0.3,0.6,0.7,1.1,1.2,1.5l0.7,0.5h-0.8l-5.6-0.2C87.4,182.1,85.6,182,83.8,182z
						 M83.9,182c1.8,0,3.7-0.1,5.5-0.1l5.3-0.1l-0.2,0.5c-1.2-0.9-1.9-2.3-1.9-3.8v-4.2c0-2.8,0-5.6,0-8.4v-8.4v-4.2
						c0.1-0.7,0.3-1.5,0.6-2.1c0.3-0.7,0.8-1.3,1.3-1.7l0.2,0.5l-10.9-0.1l0.1-0.4c0.6,0.4,1.1,1,1.4,1.7s0.5,1.4,0.5,2.1v4.2v8.4
						l-0.1,8.4v4.2c0,0.7-0.2,1.4-0.5,2.1c-0.1,0.3-0.3,0.6-0.6,0.9C84.6,181.7,84.3,181.9,83.9,182z"/>
					
						<linearGradient id="SVGID_3_" gradientUnits="userSpaceOnUse" x1="85.93" y1="269.95" x2="112.63" y2="269.95" gradientTransform="matrix(1 0 0 -1 10.21 436)">
						<stop  offset="0" style="stop-color:#FFFFFF"/>
						<stop  offset="9.000000e-02" style="stop-color:#FFFFFF;stop-opacity:0.97"/>
						<stop  offset="0.22" style="stop-color:#FFFFFF;stop-opacity:0.88"/>
						<stop  offset="0.39" style="stop-color:#FFFFFF;stop-opacity:0.74"/>
						<stop  offset="0.58" style="stop-color:#FFFFFF;stop-opacity:0.54"/>
						<stop  offset="0.79" style="stop-color:#FFFFFF;stop-opacity:0.28"/>
						<stop  offset="1" style="stop-color:#FFFFFF;stop-opacity:0"/>
					</linearGradient>
					<path class="st11" d="M121,151.5c-0.3,0.6-0.4,1.2-0.5,1.9c0,0.6,0,1.3,0,2v11.8v15.7v0.1h-0.2c-1.2-0.3-2.3-0.7-3.3-1.3
						s-2-1.3-2.9-2.1s-1.7-1.7-2.3-2.7l-1.9-3l-7.5-12l0.4-0.1l0.4,10.1l0.2,5.1c0,0.8,0.2,1.6,0.4,2.4c0.3,0.8,0.7,1.5,1.2,2.1
						l0.4,0.4H105h-7.5h-0.6l0.4-0.5c0.8-1,1.4-2.3,1.5-3.6c0.1-0.7,0.1-1.3,0.1-2v-2.1v-8.3v-8.3c0.1-1.3,0-2.7-0.3-4
						c-0.2-0.6-0.4-1.3-0.7-1.8c-0.3-0.6-0.6-1.1-1-1.6l-0.5-0.6h8.9l0.1,0.2c1.9,3.3,3.9,6.6,5.7,10l5.7,10l-0.5,0.1l0.1-10.1v-5.1
						c0-0.8-0.2-1.7-0.5-2.4c-0.3-0.8-0.6-1.5-1.1-2.2l-0.2-0.2h0.2l7.3,0.1h0.1l-0.1,0.1C121.7,150.1,121.3,150.8,121,151.5z
						 M120.9,151.5c0.3-0.7,0.6-1.5,1.1-2.1l0.1,0.1l-7.3,0.1l0.1-0.2c0.5,0.7,0.9,1.5,1.2,2.3c0.3,0.8,0.5,1.7,0.5,2.5v5.1
						l0.1,10.1v1l-0.5-0.8l-5.8-9.9c-2-3.3-3.8-6.6-5.8-10l0.3,0.2h-7.8l0.2-0.6c0.5,0.6,0.9,1.2,1.2,1.8c0.3,0.6,0.6,1.3,0.8,2
						c0.3,1.4,0.4,2.8,0.3,4.2v8.3v8.3v2.1c0,0.7,0,1.4-0.1,2.1c-0.2,1.4-0.8,2.8-1.7,3.9l-0.2-0.5h7.5l-0.2,0.4
						c-1.2-1.3-1.8-3-1.8-4.8l-0.2-5.1l-0.4-10.1v-0.8l0.4,0.7l7.4,12c1.3,2,2.3,4.2,4.1,5.7c0.9,0.8,1.8,1.5,2.8,2.1s2.1,1,3.2,1.3
						l-0.1,0.1l0.1-15.7v-7.9v-3.9c0-0.6,0-1.3,0-2C120.5,152.7,120.7,152.1,120.9,151.5L120.9,151.5z"/>
					<g>
						
							<linearGradient id="SVGID_4_" gradientUnits="userSpaceOnUse" x1="112.88" y1="270.3946" x2="139.79" y2="270.3946" gradientTransform="matrix(1 0 0 -1 10.21 436)">
							<stop  offset="0" style="stop-color:#FFFFFF"/>
							<stop  offset="9.000000e-02" style="stop-color:#FFFFFF;stop-opacity:0.97"/>
							<stop  offset="0.22" style="stop-color:#FFFFFF;stop-opacity:0.88"/>
							<stop  offset="0.39" style="stop-color:#FFFFFF;stop-opacity:0.74"/>
							<stop  offset="0.58" style="stop-color:#FFFFFF;stop-opacity:0.54"/>
							<stop  offset="0.79" style="stop-color:#FFFFFF;stop-opacity:0.28"/>
							<stop  offset="1" style="stop-color:#FFFFFF;stop-opacity:0"/>
						</linearGradient>
						<path class="st12" d="M136.1,182h-11.5h-0.3l0.3-0.1c0.3-0.2,0.7-0.2,0.9-0.5c0.2-0.3,0.4-0.6,0.5-0.9c0.3-0.6,0.4-1.3,0.4-2
							v-4.2l-0.1-8.4v-8.4v-4.2c0-0.7-0.2-1.3-0.5-1.9c-0.3-0.6-0.6-1.2-1.1-1.6l-0.6-0.5h0.7h7.4h3.7c0.6,0,1.2,0,1.9,0
							c0.3,0,0.6,0,1,0.1l0.9,0.2c1.2,0.3,2.4,0.8,3.5,1.5c0.5,0.3,1,0.7,1.5,1.1c0.5,0.4,0.9,0.9,1.3,1.4c1.6,1.9,2.7,4.2,3.4,6.7
							c0.6,2.4,0.9,4.9,0.7,7.4c-0.1,2.5-0.7,4.9-1.8,7.2s-2.8,4.2-4.9,5.4C141.1,181.5,138.6,182.1,136.1,182z M136.1,181.9
							c2.5,0,4.9-0.6,7-1.8c2.1-1.3,3.7-3.2,4.6-5.5c0.9-2.2,1.5-4.6,1.5-7.1c0.1-2.4-0.1-4.8-0.7-7.2c-0.6-2.3-1.7-4.5-3.2-6.4
							c-0.8-0.9-1.6-1.7-2.6-2.4s-2.1-1.1-3.2-1.4l-0.9-0.2c-0.3,0-0.6,0-0.9-0.1c-0.6-0.1-1.2,0-1.8-0.1h-3.7h-7.4l0.2-0.5
							c0.5,0.5,0.9,1.1,1.2,1.8c0.4,0.6,0.5,1.4,0.6,2.1v4.2v8.4l-0.1,8.4v4.2c0,0.7-0.2,1.4-0.5,2.1c-0.2,0.3-0.3,0.6-0.6,0.9
							c-0.2,0.3-0.6,0.4-0.9,0.5v-0.1L136.1,181.9z"/>
						
							<linearGradient id="SVGID_5_" gradientUnits="userSpaceOnUse" x1="122.74" y1="269.6094" x2="132.45" y2="269.6094" gradientTransform="matrix(1 0 0 -1 10.21 436)">
							<stop  offset="0" style="stop-color:#FFFFFF"/>
							<stop  offset="9.000000e-02" style="stop-color:#FFFFFF;stop-opacity:0.97"/>
							<stop  offset="0.22" style="stop-color:#FFFFFF;stop-opacity:0.88"/>
							<stop  offset="0.39" style="stop-color:#FFFFFF;stop-opacity:0.74"/>
							<stop  offset="0.58" style="stop-color:#FFFFFF;stop-opacity:0.54"/>
							<stop  offset="0.79" style="stop-color:#FFFFFF;stop-opacity:0.28"/>
							<stop  offset="1" style="stop-color:#FFFFFF;stop-opacity:0"/>
						</linearGradient>
						<path class="st13" d="M134.5,155.2l-1.2,0.3l0,0c0,3.6,0.1,7.1,0.1,10.6l0.1,10.6l-0.1-0.2c1.1,0.7,2.4,1.1,3.8,1
							c1.3-0.4,2.3-1.3,2.9-2.5c0.6-1.2,1.1-2.5,1.3-3.8c0.3-1.3,0.5-2.7,0.5-4.1c0.1-2.7-0.2-5.5-1.1-8.1c-0.4-1.3-1.3-2.4-2.4-3.2
							C137.2,155.1,135.8,154.9,134.5,155.2z M134.5,155.1c1.4-0.4,2.8-0.3,4.1,0.4c1.2,0.8,2.1,1.9,2.7,3.2c0.6,1.3,1,2.7,1.2,4.1
							c0.2,1.4,0.3,2.8,0.2,4.2c0,2.8-0.7,5.6-2,8.2c-0.7,1.3-1.9,2.3-3.3,2.7c-1.5,0.1-2.9-0.3-4.1-1.1l-0.2-0.1v-0.1l0.1-10.6
							c0-3.6,0.1-7.1,0.1-10.6l0,0l0,0L134.5,155.1z"/>
					</g>
					
						<linearGradient id="SVGID_6_" gradientUnits="userSpaceOnUse" x1="140.28" y1="270.4633" x2="160.19" y2="270.4633" gradientTransform="matrix(1 0 0 -1 10.21 436)">
						<stop  offset="0" style="stop-color:#FFFFFF"/>
						<stop  offset="9.000000e-02" style="stop-color:#FFFFFF;stop-opacity:0.97"/>
						<stop  offset="0.22" style="stop-color:#FFFFFF;stop-opacity:0.88"/>
						<stop  offset="0.39" style="stop-color:#FFFFFF;stop-opacity:0.74"/>
						<stop  offset="0.58" style="stop-color:#FFFFFF;stop-opacity:0.54"/>
						<stop  offset="0.79" style="stop-color:#FFFFFF;stop-opacity:0.28"/>
						<stop  offset="1" style="stop-color:#FFFFFF;stop-opacity:0"/>
					</linearGradient>
					<path class="st14" d="M159.8,182.4c-1.4,0-2.7-0.2-4-0.6c-1.3-0.4-2.5-0.9-3.7-1.5l0,0l0,0l-1.1-5.9v-0.2l0.1,0.1l3,1.9
						c1,0.7,2.1,1.2,3.2,1.4c1.1,0.3,2.3,0.2,3.5-0.1c1.1-0.3,1.9-1.3,2.1-2.4c0.1-1.2-0.1-2.3-0.7-3.3c-0.3-0.5-0.7-0.9-1.1-1.3
						c-0.4-0.4-0.9-0.7-1.4-1c-2.1-1.2-4.1-2.6-5.8-4.3c-0.8-0.9-1.5-2-1.9-3.1c-0.4-1.2-0.6-2.4-0.6-3.6c0-1.2,0.1-2.4,0.5-3.6
						c0.4-1.2,1-2.3,1.9-3.2c1.7-1.8,4.1-2.9,6.6-3c1.2-0.1,2.5,0,3.6,0.3c1.2,0.3,2.3,0.7,3.5,1l0.2,0.1v0.2v5.7v0.7l-0.6-0.4
						l-1.2-0.9c-0.4-0.3-0.8-0.5-1.2-0.7c-0.8-0.4-1.8-0.6-2.7-0.7c-0.9-0.1-1.7,0.3-2.3,1c-0.5,0.7-0.7,1.6-0.5,2.5
						c0.3,0.8,1,1.5,1.7,2c0.8,0.6,1.6,1.1,2.5,1.6s1.7,1,2.5,1.6s1.6,1.3,2.2,2.2c1.2,1.6,1.9,3.6,2.1,5.6c0.2,2-0.1,4-0.9,5.9
						c-0.8,1.9-2.1,3.4-3.9,4.5C163.7,181.9,161.8,182.5,159.8,182.4z M159.8,182.4c2,0,3.9-0.6,5.6-1.6c1.7-1,3-2.6,3.7-4.4
						c0.7-1.8,0.9-3.8,0.7-5.7s-1-3.8-2.2-5.3c-0.6-0.8-1.3-1.4-2.1-2c-0.8-0.5-1.7-1-2.5-1.5s-1.7-1-2.5-1.6
						c-0.9-0.6-1.6-1.4-2-2.4c-0.1-0.5-0.1-1.1,0-1.6s0.3-1,0.7-1.5c0.7-0.9,1.8-1.4,2.9-1.3c1,0,2.1,0.3,3,0.7
						c0.5,0.2,0.9,0.5,1.3,0.8l1.2,0.9l-0.6,0.3v-5.7l0.2,0.3c-1.1-0.4-2.3-0.8-3.4-1c-1.1-0.3-2.3-0.4-3.5-0.3
						c-2.3,0.1-4.5,1.1-6.2,2.8c-1.6,1.8-2.4,4.1-2.2,6.4c-0.1,2.4,0.7,4.7,2.3,6.4c1.7,1.7,3.6,3.1,5.7,4.2
						c2.3,1.1,3.6,3.5,3.4,6.1c-0.1,0.6-0.3,1.2-0.8,1.7c-0.4,0.5-1,0.8-1.6,1c-1.2,0.3-2.4,0.3-3.6,0.1c-1.2-0.3-2.3-0.8-3.3-1.5
						l-3-2l0.1-0.1l1.1,5.9v-0.1c1.2,0.6,2.4,1.1,3.7,1.5C157.1,182.2,158.4,182.4,159.8,182.4L159.8,182.4z"/>
					<g>
						
							<linearGradient id="SVGID_7_" gradientUnits="userSpaceOnUse" x1="161.8" y1="270.0572" x2="190.83" y2="270.0572" gradientTransform="matrix(1 0 0 -1 10.21 436)">
							<stop  offset="0" style="stop-color:#FFFFFF"/>
							<stop  offset="9.000000e-02" style="stop-color:#FFFFFF;stop-opacity:0.97"/>
							<stop  offset="0.22" style="stop-color:#FFFFFF;stop-opacity:0.88"/>
							<stop  offset="0.39" style="stop-color:#FFFFFF;stop-opacity:0.74"/>
							<stop  offset="0.58" style="stop-color:#FFFFFF;stop-opacity:0.54"/>
							<stop  offset="0.79" style="stop-color:#FFFFFF;stop-opacity:0.28"/>
							<stop  offset="1" style="stop-color:#FFFFFF;stop-opacity:0"/>
						</linearGradient>
						<path class="st15" d="M185.8,182.9c-2.1,0-4.1-0.5-5.9-1.5c-1.8-1-3.3-2.5-4.5-4.2c-2.3-3.5-3.4-7.6-3.3-11.7
							c0-4.2,1.4-8.2,4-11.5c2.7-3.3,6.7-5.2,11-5c2.1,0.1,4.1,0.6,6,1.6s3.5,2.4,4.7,4.1c2.3,3.5,3.4,7.7,3,11.9
							c-0.1,2.1-0.5,4.1-1.1,6.1c-0.7,2-1.7,3.8-3.1,5.4c-1.4,1.6-3.1,2.8-5,3.6C189.9,182.5,187.9,182.9,185.8,182.9z M185.8,182.8
							c2.1,0,4.1-0.4,6-1.2c1.9-0.9,3.5-2.1,4.8-3.7c2.4-3.3,3.7-7.2,3.6-11.3c0.3-4-0.7-8.1-2.9-11.5c-2.3-3.3-6-5.4-10.1-5.5
							c-4.1-0.2-8,1.5-10.6,4.7c-2.5,3.2-4,7.1-4,11.2c-0.2,4.1,0.8,8.2,3,11.6c1.1,1.7,2.6,3.1,4.4,4.2
							C181.8,182.3,183.8,182.8,185.8,182.8z"/>
						
							<linearGradient id="SVGID_8_" gradientUnits="userSpaceOnUse" x1="169.13" y1="269.8063" x2="183.34" y2="269.8063" gradientTransform="matrix(1 0 0 -1 10.21 436)">
							<stop  offset="0" style="stop-color:#FFFFFF"/>
							<stop  offset="9.000000e-02" style="stop-color:#FFFFFF;stop-opacity:0.97"/>
							<stop  offset="0.22" style="stop-color:#FFFFFF;stop-opacity:0.88"/>
							<stop  offset="0.39" style="stop-color:#FFFFFF;stop-opacity:0.74"/>
							<stop  offset="0.58" style="stop-color:#FFFFFF;stop-opacity:0.54"/>
							<stop  offset="0.79" style="stop-color:#FFFFFF;stop-opacity:0.28"/>
							<stop  offset="1" style="stop-color:#FFFFFF;stop-opacity:0"/>
						</linearGradient>
						<path class="st16" d="M186.1,154.1c-1.3,0-2.5,0.5-3.4,1.4s-1.5,2-1.9,3.2c-0.8,2.4-1,4.9-0.8,7.4c0.1,2.5,0.7,5,1.7,7.3
							c0.5,1.1,1.2,2.1,2,3s2,1.3,3.2,1.3s2.3-0.5,3.2-1.3c0.9-0.9,1.5-1.9,1.9-3.1c0.7-2.4,1-4.9,0.8-7.3c0-1.2-0.2-2.5-0.4-3.7
							s-0.5-2.4-0.9-3.6c-0.4-1.2-1.1-2.2-2-3.1C188.5,154.7,187.3,154.2,186.1,154.1z M186.1,154.1c1.3,0,2.5,0.5,3.5,1.4
							c0.9,0.9,1.7,1.9,2.2,3.1c1,2.4,1.6,4.9,1.7,7.4c0.2,2.6-0.1,5.2-0.9,7.6c-0.4,1.3-1.2,2.4-2.1,3.3c-1,0.9-2.3,1.4-3.7,1.4
							s-2.7-0.5-3.6-1.5c-0.9-0.9-1.6-2-2.1-3.2c-1-2.4-1.5-4.9-1.6-7.4c-0.2-2.5,0.2-5.1,1-7.5c0.4-1.2,1.1-2.3,2-3.2
							C183.5,154.5,184.8,154,186.1,154.1z"/>
					</g>
					<g>
						
							<linearGradient id="SVGID_9_" gradientUnits="userSpaceOnUse" x1="191.51" y1="267.25" x2="220.89" y2="267.25" gradientTransform="matrix(1 0 0 -1 10.21 436)">
							<stop  offset="0" style="stop-color:#FFFFFF"/>
							<stop  offset="9.000000e-02" style="stop-color:#FFFFFF;stop-opacity:0.97"/>
							<stop  offset="0.22" style="stop-color:#FFFFFF;stop-opacity:0.88"/>
							<stop  offset="0.39" style="stop-color:#FFFFFF;stop-opacity:0.74"/>
							<stop  offset="0.58" style="stop-color:#FFFFFF;stop-opacity:0.54"/>
							<stop  offset="0.79" style="stop-color:#FFFFFF;stop-opacity:0.28"/>
							<stop  offset="1" style="stop-color:#FFFFFF;stop-opacity:0"/>
						</linearGradient>
						<path class="st17" d="M227.2,188.1c-1.1,0.2-2.3,0.3-3.5,0.3c-0.6,0-1.2-0.2-1.7-0.5s-0.9-0.8-1.2-1.3
							c-1.4-1.9-2.6-3.9-3.8-5.8c-0.6-1-1.2-2-1.7-3.1l-1.5-3.2l-2.9-6.3l0.2-0.1l0.4,7.1c0.1,1.2,0,2.4,0.1,3.5
							c0.1,1.2,0.6,2.2,1.5,3l0.5,0.4H213h-10.5H202l0.5-0.4c1.1-0.8,1.7-2.1,1.7-3.5s0-2.8,0-4.2v-8.3v-8.3v-4.2
							c-0.1-0.7-0.2-1.3-0.4-1.9c-0.1-0.3-0.2-0.6-0.4-0.9c-0.2-0.3-0.4-0.5-0.6-0.7l-0.8-0.6h1h8.7c1.5,0,2.9,0,4.4,0
							c1.5,0.1,3,0.7,4.1,1.7s1.9,2.4,2.3,3.8c0.4,1.4,0.6,2.9,0.5,4.4c-0.2,3.1-2,5.8-4.8,7.2l0.1-0.4c0.9,1.9,1.8,3.8,2.6,5.8
							s1.6,3.9,2.6,5.8s2.2,3.6,3.3,5.3s2.4,3.5,3.6,5.1l0.1,0.1h-0.1L227.2,188.1z M227.2,188h3.1v0.1c-1.3-1.7-2.5-3.4-3.7-5.1
							s-2.4-3.4-3.5-5.3s-1.8-3.8-2.7-5.7s-1.8-3.8-2.7-5.7l-0.1-0.3l0.3-0.1c2.5-1.3,4.1-3.9,4.3-6.7c0.2-2.7-0.5-5.8-2.6-7.6
							c-1-0.9-2.3-1.4-3.7-1.5s-2.9,0-4.3,0h-8.7l0.2-0.6c0.6,0.5,1,1.1,1.2,1.9c0.1,0.3,0.2,0.7,0.3,1c0.1,0.4,0.2,0.7,0.2,1.1v4.2
							v8.3v8.3c0,1.4,0,2.8,0,4.2c0,0.7-0.2,1.4-0.5,2.1c-0.2,0.3-0.4,0.6-0.6,0.9c-0.2,0.3-0.5,0.5-0.8,0.8l-0.2-0.4h10.5l-0.1,0.4
							c-0.5-0.4-0.9-0.9-1.1-1.5c-0.2-0.6-0.4-1.2-0.5-1.8c-0.1-1.2,0-2.4-0.1-3.6l-0.3-7.1v-0.7l0.3,0.6l2.9,6.4l1.4,3.2
							c0.5,1,1.1,2,1.7,3c1.2,2,2.4,4,3.8,5.8c0.3,0.5,0.7,0.9,1.2,1.2s1.1,0.4,1.6,0.4C225,188.2,226.1,188.1,227.2,188z"/>
						
							<linearGradient id="SVGID_10_" gradientUnits="userSpaceOnUse" x1="200.87" y1="275.75" x2="205.66" y2="275.75" gradientTransform="matrix(1 0 0 -1 10.21 436)">
							<stop  offset="0" style="stop-color:#FFFFFF"/>
							<stop  offset="9.000000e-02" style="stop-color:#FFFFFF;stop-opacity:0.97"/>
							<stop  offset="0.22" style="stop-color:#FFFFFF;stop-opacity:0.88"/>
							<stop  offset="0.39" style="stop-color:#FFFFFF;stop-opacity:0.74"/>
							<stop  offset="0.58" style="stop-color:#FFFFFF;stop-opacity:0.54"/>
							<stop  offset="0.79" style="stop-color:#FFFFFF;stop-opacity:0.28"/>
							<stop  offset="1" style="stop-color:#FFFFFF;stop-opacity:0"/>
						</linearGradient>
						<path class="st18" d="M212.5,154.7h-1l0,0c0,0.9,0,1.8,0.1,2.7l0.1,2.7l0.1,5.5l-0.3-0.3c1.1-0.3,2-1,2.6-1.9
							c0.6-1,1-2,1.1-3.2c0.1-1.1,0-2.3-0.2-3.4c-0.1-0.6-0.4-1.1-0.8-1.5C213.6,155,213.1,154.7,212.5,154.7z M212.5,154.6
							c0.6,0,1.2,0.2,1.7,0.6c0.5,0.4,0.8,0.9,1.1,1.5c0.5,1.1,0.7,2.4,0.6,3.6c-0.1,1.3-0.5,2.5-1.3,3.5c-0.7,1.1-1.8,1.8-3.1,2.1
							h-0.3v-0.3l0.1-5.5l0.1-2.7c0-0.9,0.1-1.8,0.1-2.7l0,0h1L212.5,154.6L212.5,154.6z"/>
					</g>
				</g>
			</g>
		</g>
		<g id="parent-company-branding">
			<g id="bg">
				<path id="top" class="st19" d="M85.3,69.2c0-25.4,18.2-49.1,52.5-49.1c28,0,51.3,18.8,51.3,49.1"/>
				<path id="bottom" class="st19" d="M85.3,69.2c0,24.1,19.8,46.7,52.5,46.7c26.9,0,51.3-17.7,51.3-46.7"/>
			</g>
			<g id="bottom-2">
				<g id="bottom-3">
					<g>
						<g>
							<g>
								<path class="st20" d="M167.3,70c-0.6,16.1-14.5,24.3-29.8,24.3C119,94.3,107.6,83.5,107,70H89.2c0,22.3,18.3,41.7,48.5,41.7
									c23.1,0,47.3-14.9,47.3-41.7H167.3z"/>
								<path class="st21" d="M167.3,70c-0.6,16.1-14.5,24.3-29.8,24.3C119,94.3,107.6,83.5,107,70H89.2c0,22.3,18.3,41.7,48.5,41.7
									c23.1,0,47.3-14.9,47.3-41.7H167.3z"/>
							</g>
						</g>
						<g class="st22">
							<g class="st23">
								<path d="M167.3,70c-0.6,16.1-14.5,24.3-29.8,24.3C119,94.3,107.6,83.5,107,70H89.2c0,22.3,18.3,41.7,48.5,41.7
									c23.1,0,47.3-14.9,47.3-41.7H167.3z"/>
								<path class="st24" d="M167.3,70c-0.6,16.1-14.5,24.3-29.8,24.3C119,94.3,107.6,83.5,107,70H89.2c0,22.3,18.3,41.7,48.5,41.7
									c23.1,0,47.3-14.9,47.3-41.7H167.3z"/>
							</g>
						</g>
					</g>
					<g class="st25">
						<g class="st26">
							<path d="M167.3,70c-0.6,16.1-14.5,24.3-29.8,24.3C119,94.3,107.6,83.5,107,70H89.2c0,22.3,18.3,41.7,48.5,41.7
								c23.1,0,47.3-14.9,47.3-41.7H167.3z"/>
							<path class="st24" d="M167.3,70c-0.6,16.1-14.5,24.3-29.8,24.3C119,94.3,107.6,83.5,107,70H89.2c0,22.3,18.3,41.7,48.5,41.7
								c23.1,0,47.3-14.9,47.3-41.7H167.3z"/>
						</g>
					</g>
				</g>
				<g id="highlight_2" class="st27">
					
						<linearGradient id="SVGID_11_" gradientUnits="userSpaceOnUse" x1="87.99" y1="336.5406" x2="167.81" y2="336.5406" gradientTransform="matrix(1 0 0 -1 10.21 436)">
						<stop  offset="0" style="stop-color:#FFFFFF;stop-opacity:0"/>
						<stop  offset="4.000000e-02" style="stop-color:#FFFFFF;stop-opacity:0.12"/>
						<stop  offset="0.1" style="stop-color:#FFFFFF;stop-opacity:0.3"/>
						<stop  offset="0.17" style="stop-color:#FFFFFF;stop-opacity:0.47"/>
						<stop  offset="0.24" style="stop-color:#FFFFFF;stop-opacity:0.61"/>
						<stop  offset="0.32" style="stop-color:#FFFFFF;stop-opacity:0.73"/>
						<stop  offset="0.4" style="stop-color:#FFFFFF;stop-opacity:0.83"/>
						<stop  offset="0.5" style="stop-color:#FFFFFF;stop-opacity:0.91"/>
						<stop  offset="0.61" style="stop-color:#FFFFFF;stop-opacity:0.96"/>
						<stop  offset="0.75" style="stop-color:#FFFFFF;stop-opacity:0.99"/>
						<stop  offset="1" style="stop-color:#FFFFFF"/>
					</linearGradient>
					<path class="st28" d="M98.7,91.2c2,3.3,4.6,6.2,7.7,8.4c3,2.3,6.4,4.2,9.9,5.6c7.2,2.7,14.8,4,22.4,3.8c7.6-0.1,15.2-2,22-5.3
						c3.4-1.7,6.7-3.7,9.7-6.1c1.5-1.2,2.9-2.5,4.2-3.9s2.3-3.1,2.9-4.9c-0.5,1.9-1.4,3.6-2.7,5.1c-1.2,1.5-2.6,2.9-4.1,4.1
						c-9,7.6-20.3,11.8-32,12.1c-3.9,0.1-7.7-0.2-11.6-0.9c-3.8-0.6-7.6-1.7-11.2-3.2s-7-3.5-10-5.9C103,97.6,100.5,94.6,98.7,91.2z
						"/>
				</g>
				<g id="hihglight_1" class="st29">
					
						<linearGradient id="SVGID_12_" gradientUnits="userSpaceOnUse" x1="94.45" y1="350.6707" x2="167.32" y2="350.6707" gradientTransform="matrix(1 0 0 -1 10.21 436)">
						<stop  offset="0" style="stop-color:#FFFFFF;stop-opacity:0"/>
						<stop  offset="1" style="stop-color:#FFFFFF"/>
					</linearGradient>
					<path class="st30" d="M177.5,73c-2.7,0.1-5.4,0.2-8.1,0.2l0.2-0.2c-0.2,3.7-1.6,7.3-3.9,10.2c-2.2,2.9-4.9,5.5-8,7.6
						c-3,2.1-6.3,3.8-9.7,5.1c-3.5,1.3-7.1,1.9-10.8,1.9c-7.4-0.3-14.5-2.7-20.6-7c-3-2.1-5.7-4.7-7.9-7.6
						c-2.2-2.9-3.5-6.4-3.8-10.1c0.4,3.6,1.8,7.1,4.1,9.9c2.2,2.9,4.9,5.4,7.9,7.4s6.3,3.7,9.7,4.8c3.4,1.2,7,1.8,10.6,1.9
						c3.6,0,7.2-0.6,10.6-1.9c3.4-1.2,6.6-2.9,9.6-4.9s5.6-4.5,7.9-7.4c2.3-2.8,3.6-6.2,3.9-9.8v-0.2h0.2
						C172.2,72.8,174.8,72.9,177.5,73z"/>
				</g>
				<g id="text-2">
					<g class="st31">
						<text transform="matrix(0.6963 0.7178 -0.7178 0.6963 97.8702 89.9691)" class="st32 st33 st34">W</text>
						<text transform="matrix(0.8823 0.4707 -0.4707 0.8823 111.4597 102.1201)" class="st32 st33 st35">I</text>
						<text transform="matrix(0.9634 0.2679 -0.2679 0.9634 117.2399 105.4308)" class="st32 st33 st36">N</text>
						<text transform="matrix(0.9999 1.343863e-02 -1.343863e-02 0.9999 131.36 108.98)" class="st32 st33 st35">D</text>
						<text transform="matrix(0.9727 -0.2319 0.2319 0.9727 145.1401 108.74)" class="st32 st33 st37">S</text>
						<text transform="matrix(0.8751 -0.484 0.484 0.8751 156.25 106.1202)" class="st32 st33 st38">O</text>
						<text transform="matrix(0.6441 -0.7649 0.7649 0.6441 170.2191 97.5808)" class="st32 st33 st39">R</text>
					</g>
					<g>
						<text transform="matrix(0.6963 0.7178 -0.7178 0.6963 97.5097 89.61)" class="st40 st33 st34">W</text>
						<text transform="matrix(0.8823 0.4707 -0.4707 0.8823 111.0999 101.76)" class="st40 st33 st35">I</text>
						<text transform="matrix(0.9634 0.2679 -0.2679 0.9634 116.8799 105.0707)" class="st40 st33 st36">N</text>
						<text transform="matrix(0.9999 1.343863e-02 -1.343863e-02 0.9999 131 108.62)" class="st40 st33 st35">D</text>
						<text transform="matrix(0.9727 -0.2319 0.2319 0.9727 144.7802 108.3801)" class="st40 st33 st37">S</text>
						<text transform="matrix(0.8751 -0.484 0.484 0.8751 155.8904 105.7608)" class="st40 st33 st38">O</text>
						<text transform="matrix(0.6441 -0.7649 0.7649 0.6441 169.8591 97.2215)" class="st40 st33 st39">R</text>
					</g>
				</g>
			</g>
			<g id="top-2">
				<g>
					<g>
						<path class="st4" d="M185.6,67.8h-18.3c-0.5-16.9-13.8-25.5-29.8-25.5c-19.5,0-30,11.3-30.5,25.5H89.2
							c0-13.3,3.5-24.8,15.2-33.3c2.6,3,4.2,4.7,6.8,7.7c3.2-2.7,7-4.7,11-5.9c-1.5-3.6-2.7-5.8-4.2-9.4c12.2-4.4,26.6-5.2,38.7,0
							c-1.6,3.6-2.6,6-4.1,9.6c4.8,1.9,7.1,3,10.9,6c2.9-2.8,4.5-4.6,7.4-7.4c11.3,8.4,14.1,20.4,14.1,32.7"/>
						<path class="st21" d="M185.6,67.8h-18.3c-0.5-16.9-13.8-25.5-29.8-25.5c-19.5,0-30,11.3-30.5,25.5H89.2
							c0-13.3,3.5-24.8,15.2-33.3c2.6,3,4.2,4.7,6.8,7.7c3.2-2.7,7-4.7,11-5.9c-1.5-3.6-2.7-5.8-4.2-9.4c12.2-4.4,26.6-5.2,38.7,0
							c-1.6,3.6-2.6,6-4.1,9.6c4.8,1.9,7.1,3,10.9,6c2.9-2.8,4.5-4.6,7.4-7.4c11.3,8.4,14.1,20.4,14.1,32.7"/>
					</g>
					<g class="st22">
						<path class="st23" d="M185.6,67.8h-18.3c-0.5-16.9-13.8-25.5-29.8-25.5c-19.5,0-30,11.3-30.5,25.5H89.2
							c0-13.3,3.5-24.8,15.2-33.3c2.6,3,4.2,4.7,6.8,7.7c3.2-2.7,7-4.7,11-5.9c-1.5-3.6-2.7-5.8-4.2-9.4c12.2-4.4,26.6-5.2,38.7,0
							c-1.6,3.6-2.6,6-4.1,9.6c4.8,1.9,7.1,3,10.9,6c2.9-2.8,4.5-4.6,7.4-7.4c11.3,8.4,14.1,20.4,14.1,32.7"/>
						<path class="st41" d="M185.6,67.8h-18.3c-0.5-16.9-13.8-25.5-29.8-25.5c-19.5,0-30,11.3-30.5,25.5H89.2
							c0-13.3,3.5-24.8,15.2-33.3c2.6,3,4.2,4.7,6.8,7.7c3.2-2.7,7-4.7,11-5.9c-1.5-3.6-2.7-5.8-4.2-9.4c12.2-4.4,26.6-5.2,38.7,0
							c-1.6,3.6-2.6,6-4.1,9.6c4.8,1.9,7.1,3,10.9,6c2.9-2.8,4.5-4.6,7.4-7.4c11.3,8.4,14.1,20.4,14.1,32.7"/>
					</g>
				</g>
				<g>
					<g class="st22">
						<path class="st42" d="M185.6,67.8h-18.3c-0.5-16.9-13.8-25.5-29.8-25.5c-19.5,0-30,11.3-30.5,25.5H89.2
							c0-13.3,3.5-24.8,15.2-33.3c2.6,3,4.2,4.7,6.8,7.7c3.2-2.7,7-4.7,11-5.9c-1.5-3.6-2.7-5.8-4.2-9.4c12.2-4.4,26.6-5.2,38.7,0
							c-1.6,3.6-2.6,6-4.1,9.6c4.8,1.9,7.1,3,10.9,6c2.9-2.8,4.5-4.6,7.4-7.4c11.3,8.4,14.1,20.4,14.1,32.7"/>
					</g>
				</g>
			</g>
			<g id="inner_ellipse">
				<g>
					<g>
						<g>
							<path id="top-3_15_" class="st43" d="M110.6,68.8c0-13,9.3-23.4,26.9-23.4c14.3,0,26.2,7.9,26.2,23.4"/>
							<path id="bottom-4_15_" class="st43" d="M110.6,68.8c0,12.3,10.1,22.4,26.9,22.4c13.7,0,26.2-7.6,26.2-22.4"/>
						</g>
					</g>
					<g class="st44">
						<g class="st23">
							<path id="top-3_12_" class="st45" d="M110.6,68.8c0-13,9.3-23.4,26.9-23.4c14.3,0,26.2,7.9,26.2,23.4"/>
							<path id="bottom-4_12_" class="st45" d="M110.6,68.8c0,12.3,10.1,22.4,26.9,22.4c13.7,0,26.2-7.6,26.2-22.4"/>
						</g>
					</g>
				</g>
				<g>
					<g class="st44">
						<g class="st23">
							<path id="top-4" class="st45" d="M110.6,68.8c0-13,9.3-23.4,26.9-23.4c14.3,0,26.2,7.9,26.2,23.4"/>
							<path id="bottom-5" class="st45" d="M110.6,68.8c0,12.3,10.1,22.4,26.9,22.4c13.7,0,26.2-7.6,26.2-22.4"/>
						</g>
					</g>
				</g>
			</g>
			<g id="ellipse_highlight" class="st46">
				<path class="st40" d="M113.4,73.8c0.2,2,0.9,3.8,2.1,5.4s2.5,3,4.1,4.2s3.2,2.3,4.9,3.2c1.7,0.9,3.6,1.7,5.5,2.1
					c-2-0.2-4-0.7-5.8-1.6c-1.8-0.8-3.6-1.9-5.2-3.1s-3-2.7-4.1-4.4C113.9,77.9,113.3,75.9,113.4,73.8z"/>
			</g>
			<g id="crystal">
				<g>
					<g>
						<g>
							<defs>
								<path id="SVGID_13_" d="M110.6,68.8c0-13,9.3-23.4,26.9-23.4c14.3,0,26.2,7.9,26.2,23.4 M110.6,68.8
									c0,12.3,10.1,22.4,26.9,22.4c13.7,0,26.2-7.6,26.2-22.4"/>
							</defs>
							<clipPath id="SVGID_14_">
								<use xlink:href="#SVGID_13_"  style="overflow:visible;"/>
							</clipPath>
							<g class="st47">
								<g id="crystal-2">
									<path class="st48" d="M142.1,85c0,0,1.1-0.1,3.5,0s3.5,0,3.5,0l4.2-4v-3.4l-5.6,0.6L142.1,85z"/>
									<polygon class="st48" points="140.1,84.7 135.9,84.8 126.6,78.5 129,71.4 139,82 									"/>
									<polygon class="st48" points="133.7,85 131.6,85 129.6,85 125.7,85 118.9,80.9 124.7,79.2 									"/>
									<polygon class="st48" points="118.6,79.2 125.2,77.4 127.5,70.6 120.1,71 									"/>
									<polygon class="st48" points="138.2,79.2 129.6,69.1 127.8,69.6 123.1,60.3 131.1,58.5 									"/>
									<polygon class="st48" points="140.6,82.8 140.9,62.4 139.5,51.6 132.2,58 									"/>
									<polygon class="st48" points="138.8,50.7 130.1,49 131.9,56.5 									"/>
									<polygon class="st48" points="128.7,49.8 130.5,57.1 122.9,59.1 									"/>
									<polygon class="st48" points="141.7,83.4 142.6,62.9 149.6,67 147,76.9 									"/>
									<polygon class="st48" points="142.9,61.7 150,65.5 150.1,57.8 									"/>
									<polygon class="st48" points="151.3,58.8 151.5,65.9 158.8,64.2 									"/>
									<polygon class="st48" points="151.2,67.4 159.3,65.5 153.1,76.7 148.5,77 									"/>
									<path class="st48" d="M137.6,89.3c-10.3,0-11.4-2.9-11.4-2.9h13.9L137.6,89.3z"/>
									<path class="st48" d="M141.7,86.3c4.2,0,7.5,0,7.5,0s-2.3,2.8-9.9,3L141.7,86.3z"/>
								</g>
							</g>
						</g>
					</g>
				</g>
			</g>
		</g>
		<g id="left-wing">
			<path id="BG-2" class="st49" d="M106.7,116c0,0-46.5-30.8-16.1-81.2H72.3c-7.4,16-11.7,29.5-10,40.8C64.6,91.5,72.9,106,85.5,116
				H106.7z"/>
			<g id="inside-art">
				<g>
					<g>
						<g>
							<defs>
								<path id="SVGID_15_" d="M106.9,116c0,0-46.5-30.8-16.1-81.2H72.5c-7.4,16-11.7,29.5-10,40.8C64.8,91.5,73.1,106,85.7,116
									H106.9z"/>
							</defs>
							<clipPath id="SVGID_16_">
								<use xlink:href="#SVGID_15_"  style="overflow:visible;"/>
							</clipPath>
							<g class="st50">
								<g id="Stripes">
									
										<rect x="98.5" y="-5.3" transform="matrix(0.4959 -0.8684 0.8684 0.4959 13.236 111.5812)" class="st4" width="8.4" height="99.3"/>
									
										<rect x="91.4" y="7.1" transform="matrix(0.4959 -0.8684 0.8684 0.4959 -1.1315 111.6481)" class="st4" width="8.4" height="99.3"/>
									
										<rect x="84.4" y="19.4" transform="matrix(0.4959 -0.8684 0.8684 0.4959 -15.308 111.7696)" class="st4" width="8.4" height="99.3"/>
									
										<rect x="76.2" y="31" transform="matrix(0.4959 -0.8684 0.8684 0.4959 -29.5283 110.5093)" class="st4" width="8.4" height="99.3"/>
									
										<rect x="69.2" y="43.5" transform="matrix(0.4959 -0.8684 0.8684 0.4959 -43.8726 110.7322)" class="st4" width="8.4" height="99.3"/>
									
										<rect x="62.1" y="55.9" transform="matrix(0.4959 -0.8684 0.8684 0.4959 -58.2045 110.7539)" class="st4" width="8.4" height="99.3"/>
									
										<rect x="55.1" y="68.1" transform="matrix(0.4959 -0.8684 0.8684 0.4959 -72.381 110.8755)" class="st4" width="8.4" height="99.3"/>
									
										<rect x="48" y="80.5" transform="matrix(0.4959 -0.8684 0.8684 0.4959 -86.7383 110.9423)" class="st4" width="8.4" height="99.3"/>
									
										<rect x="41" y="92.8" transform="matrix(0.4959 -0.8684 0.8684 0.4959 -100.9249 111.0639)" class="st4" width="8.4" height="99.3"/>
								</g>
								<g id="snow">
									<path class="st51" d="M96.7,116.2c-0.7-0.6-1.5-1.2-2.3-1.8c-1.6-1-3.5-1.3-5.1-2.2s-2.9-2.1-4.5-3
										c-1.1-0.6-2.2-0.9-3.3-1.5c-0.8-0.4-1.6-1-2.5-1.5c-1.5-0.8-3.1-1.4-4.8-1.6c-1.7,0-1.3,1.6-1.7,2.6
										c-0.6,1.2-1.2,2.5-1.6,3.8c-0.1,0.2,0.4,0.5,0.6,0.3c0.8-0.6,0.3-1,0.7-1.5c0.1-0.2,0.4-0.3,0.6-0.3s0.4,0.1,0.7,0.1
										c0.6,0.1,0.8-0.5,1.1-0.9c0.6-0.7,1.6-0.7,2.3-0.1c0.6,0.6,0.4,1.3,1,1.9c0.6,0.5,1.5,0.6,2.3,0.4c0.7-0.3,1.5-0.3,2.2-0.1
										c0.1,0,0.2,0.1,0.3,0.2c0.1,0.1,0.1,0.3,0.1,0.4c0.1,0.2,0.3,0.3,0.5,0.3l0,0c0.2-0.1,0.5-0.2,0.7-0.2
										c0.3,0,0.6,0.2,0.8,0.4c0.6,0.8-1.3,1.2-0.6,2c0.3,0.3,0.7,0.4,1.1,0.4c0.9-0.2,0.7-1.2,1.4-1.5c0.3-0.1,0.6,0,0.9,0.1
										c0.7,0.4,0.4,1.1,1,1.6s1.4,0,2.1,0.1s1.3,1.1,2.1,1.5c0.6,0.2,1.1,0.3,1.7,0.3c0.8,0.1,1.5,0.4,2.2,0.8
										c0.3,0.2,0.6,0.4,1,0.6c0.2,0,0.5,0,0.8,0c0.5,0,1,0.4,1.7,0.5c0.2,0,0.2-0.1,0-0.2C99,117.8,97.4,116.8,96.7,116.2z"/>
									<path class="st51" d="M66.6,93.4c1,0.6,2,1,3.2,1.1c0.6,0.1,2.4,0.2,2.9,0.6s0.7,0.8,1,1.2c1.1,1.1,3,0.8,4.4,1.4
										c2,0.9,2.9,3.6,5,4.4c0.8,0.2,1.7,0.4,2.5,0.7c0.5,0.3,1,0.6,1.4,1c1.7,1.2,4.1,1,6,2c2.6,1.3,3.9,4.6,6.6,5.6
										c1.2,0.5,2.6,0.5,3.7,1.2s1.9,2,2.9,3.1c0.3,0.4,0.6,0.7,1,1c0.1,0,0.1,0.1,0.1,0.2c0,0,0,0-0.1,0.1h-0.1
										c-0.7-0.3-1.7-0.8-2.1-0.7s-1.3,0.5-1.8,0.2c-0.3-0.3-0.5-0.7-0.6-1.1c-0.2-0.5-0.7-0.7-1.2-0.7c-1.1,0.2-1.3,1.4-2.2,1.8
										c-0.3,0.1-0.6,0.1-0.9-0.1c-0.6-0.4-0.3-1.3-0.1-1.9c0.1-0.3,0.1-0.6,0-0.9c-0.3-0.8-1-0.4-1.5-0.6s-0.6-0.9-1-1.2
										c-0.2-0.2-0.6-0.2-0.8-0.4c-0.6-0.4-0.7-1.4-1.3-1.7s-1.4,0.4-2.2,0.2s-1-0.8-1.4-1.4s-0.9-1.2-1.6-1
										c-0.4,0.1-0.6,0.4-0.9,0.7l0,0c-0.2,0.2-0.5,0.2-0.7,0c-0.1-0.1-0.1-0.2-0.1-0.4c0-0.3-0.1-0.5-0.3-0.5
										c-0.1,0-0.2,0-0.2,0.1c-0.8,0.5-1,2-1.8,1.5s0.3-1.4,0.3-2s-0.7-1.5-1.4-0.8c-0.2,0.2-0.4,0.2-0.7,0.1
										c-0.7-0.3,0.1-1.2-0.3-1.6c-0.2-0.2-0.7,0-1-0.1c-0.5-0.1-0.7-0.9-0.6-1.4c0-0.2,0-0.4,0-0.7c-0.3-1-1.2-0.7-1.9-0.8
										c-0.8-0.2-1.5-0.7-2-1.3c-0.8-0.6-1.8-1.2-2.7-0.5c-0.2,0.2-0.5,0.2-0.8,0.2c-0.8-0.2-0.5-1-0.6-1.6
										c-0.2-0.7-0.8-1.1-1.5-0.9c-0.2,0-0.4,0.1-0.5,0.2c-0.3,0.2-0.4,0.6-0.8,0.7s-0.9-0.1-1-0.5v-0.1c-0.1-0.6,0.4-1.1,0.3-1.7
										c-0.1-1.2-1.9-1.4-2.2-2.6C66.7,93.6,66.6,93.4,66.6,93.4z"/>
									<path class="st51" d="M72.1,86.6c1.1,0.3,2.1,0.8,3.2,1.2c1.9,1,3.4,2.5,5.3,3.6s3.8,1.6,5.6,2.6c1.2,0.7,2.2,1.6,3.4,2.2
										c1,0.6,2,1,3,1.5c1.7,0.9,3.2,2.2,4.5,3.6c1.1,1.6-0.6,2-1.2,2.9c-0.7,1.2-1.5,2.4-2.4,3.4c-0.2,0.2-0.7-0.1-0.7-0.3
										c0-1.1,0.8-0.8,0.9-1.4c0.1-0.2,0-0.5-0.1-0.7c-0.2-0.2-0.3-0.4-0.5-0.6c-0.5-0.6-0.1-1,0.1-1.4c0.2-1-0.4-1.9-1.4-2.1
										c-0.9-0.2-1.5,0.3-2.3,0c-0.9-0.3-1.5-1-1.8-1.9c-0.2-0.8-0.7-1.5-1.4-2.1c-0.1-0.1-0.2-0.1-0.4-0.2c-0.2,0-0.3,0-0.5,0.1
										s-0.5-0.1-0.6-0.3c0-0.3-0.1-0.5-0.3-0.8c-0.2-0.3-0.6-0.5-0.9-0.6c-1.1-0.1-0.3,1.8-1.5,1.6c-0.4-0.1-0.8-0.4-1-0.8
										c-0.3-0.9,0.7-1.2,0.4-2.1c-0.1-0.3-0.4-0.6-0.7-0.8c-0.8-0.4-1.3,0.2-2.1-0.1s-0.8-1.3-1.5-1.9s-1.9-0.7-2.8-1.2
										c-0.5-0.4-1-0.9-1.4-1.4c-0.6-0.7-1.4-1.2-2.2-1.6c-0.4-0.2-0.8-0.4-1.2-0.6c-0.2-0.2-0.4-0.4-0.5-0.7
										c-0.3-0.5-1-0.8-1.5-1.2c-0.1-0.1,0-0.2,0.1-0.2C69.1,85.3,71,86.2,72.1,86.6z"/>
									<path class="st51" d="M31.9,57.6c1.1,0.8,1.7,0.8,3.2,1.1c0.6,0.1,2.4,0.2,2.9,0.6c0.5,0.4,0.7,0.8,1,1.2
										c1.1,1.1,3,0.8,4.4,1.4c2,0.9,2.9,3.6,5,4.4c0.8,0.2,1.7,0.4,2.5,0.7c0.5,0.3,0.9,0.6,1.4,1c1.7,1.2,4.1,1,6,2
										c2.6,1.3,3.9,4.6,6.6,5.6c1.2,0.5,2.6,0.5,3.7,1.2s1.9,2,2.9,3.1c0.3,0.4,0.6,0.7,1,1c0.1,0,0.1,0.1,0.1,0.2
										c0,0,0,0-0.1,0.1h-0.1c-0.7-0.3-1.7-0.9-2.1-0.7c-0.5,0.2-1.3,0.5-1.8,0.2c-0.3-0.3-0.5-0.7-0.6-1.1
										c-0.2-0.5-0.7-0.7-1.2-0.7c-1.1,0.2-1.3,1.4-2.2,1.8c-0.3,0.1-0.6,0.1-0.9-0.1c-0.5-0.4-0.3-1.3-0.1-1.9
										c0.1-0.3,0.1-0.6,0-0.9c-0.3-0.8-1-0.4-1.5-0.6s-0.6-0.9-1-1.2c-0.2-0.2-0.5-0.2-0.8-0.4c-0.6-0.4-0.7-1.4-1.3-1.7
										s-1.5,0.4-2.2,0.2s-1-0.8-1.4-1.4s-0.9-1.2-1.6-1c-0.3,0.2-0.7,0.4-0.9,0.7l0,0c-0.2,0.2-0.5,0.2-0.7,0
										C52,72.3,52,72.2,52,72c0-0.3-0.1-0.5-0.3-0.5c-0.1,0-0.2,0-0.2,0.1c-0.8,0.5-1,2-1.8,1.5s0.3-1.4,0.3-2s-0.7-1.5-1.4-0.8
										c-0.2,0.2-0.4,0.2-0.7,0.1c-0.7-0.3,0.1-1.2-0.3-1.6s-0.7,0-1-0.1c-0.5-0.1-0.7-0.9-0.6-1.4c0-0.2,0-0.4,0-0.6
										c-0.3-1-1.2-0.7-1.9-0.8c-0.8-0.3-1.5-0.7-2-1.3C41,64,39.9,63.4,39,64.2c-0.2,0.2-0.5,0.3-0.8,0.2c-0.8-0.2-0.5-1-0.6-1.6
										c-0.2-0.7-0.8-1.1-1.5-0.9c-0.2,0-0.4,0.1-0.5,0.2c-0.3,0.2-0.4,0.6-0.8,0.7c-0.4,0.1-0.9-0.2-1-0.6c0,0,0,0,0-0.1
										c-0.1-0.6,0.4-1.1,0.3-1.7c-0.1-1.2-2-1.4-2.2-2.6C31.9,57.8,31.9,57.6,31.9,57.6z"/>
									<path class="st51" d="M64,66.5c1.2,0.8,1.7,0.8,3.2,1.1c0.6,0.1,2.4,0.2,2.9,0.6s0.7,0.8,1,1.2c1.1,1.1,3,0.8,4.4,1.4
										c2,0.9,2.9,3.6,5,4.4c0.8,0.2,1.7,0.4,2.5,0.7c0.5,0.3,0.9,0.6,1.4,1c1.7,1.2,4.1,1,6,2c2.6,1.3,3.9,4.6,6.6,5.6
										c1.2,0.5,2.6,0.5,3.7,1.2s1.9,2,2.9,3.1c0.3,0.4,0.6,0.7,1,1c0.1,0,0.1,0.1,0.1,0.2c0,0,0,0-0.1,0.1h-0.1
										c-0.7-0.3-1.7-0.8-2.1-0.7s-1.3,0.5-1.8,0.2c-0.3-0.3-0.5-0.7-0.6-1.1c-0.2-0.5-0.7-0.7-1.2-0.7c-1.1,0.2-1.3,1.4-2.2,1.8
										c-0.3,0.1-0.6,0.1-0.9-0.1c-0.6-0.4-0.3-1.3-0.1-1.9c0.1-0.3,0.1-0.6,0-0.9c-0.3-0.8-1-0.4-1.5-0.6s-0.6-0.9-1-1.2
										c-0.2-0.2-0.6-0.2-0.8-0.4c-0.6-0.4-0.7-1.4-1.3-1.7s-1.4,0.4-2.2,0.2s-1-0.8-1.4-1.4s-0.9-1.2-1.6-1
										c-0.4,0.1-0.6,0.5-0.9,0.7l0,0c-0.2,0.2-0.5,0.2-0.7,0c-0.1-0.1-0.1-0.2-0.1-0.4c0-0.3-0.1-0.5-0.3-0.5
										c-0.1,0-0.2,0-0.2,0.1c-0.8,0.5-1,2-1.8,1.5s0.3-1.4,0.3-2s-0.7-1.5-1.4-0.8c-0.2,0.2-0.4,0.2-0.7,0.2
										c-0.7-0.3,0.1-1.2-0.3-1.6c-0.2-0.2-0.7,0-1-0.1c-0.5-0.1-0.7-0.9-0.6-1.4c0-0.2,0-0.4-0.1-0.7c-0.3-1-1.2-0.7-1.9-0.8
										c-0.8-0.3-1.5-0.7-2-1.3c-0.8-0.7-1.8-1.2-2.7-0.5c-0.2,0.2-0.5,0.2-0.8,0.2c-0.8-0.2-0.5-1-0.6-1.6
										c-0.2-0.7-0.8-1.1-1.5-0.9c-0.2,0-0.4,0.1-0.5,0.2c-0.3,0.2-0.4,0.6-0.8,0.7s-0.9-0.1-1-0.6v-0.1c-0.1-0.6,0.4-1.1,0.3-1.7
										c-0.1-1.2-1.9-1.4-2.2-2.6C64,66.7,64,66.6,64,66.5z"/>
									<path class="st51" d="M26.3,38.1c1.1,0.8,1.7,0.8,3.2,1.1c0.6,0.1,2.4,0.2,2.9,0.6c0.5,0.4,0.7,0.8,1,1.2
										c1.1,1.1,3,0.8,4.4,1.4c2,0.9,2.9,3.6,5,4.4c0.8,0.2,1.7,0.4,2.5,0.7c0.5,0.3,1,0.6,1.4,1c1.7,1.2,4.1,1,6,2
										c2.6,1.3,3.9,4.5,6.6,5.6c1.2,0.5,2.6,0.5,3.7,1.2s1.9,2,2.9,3c0.3,0.4,0.6,0.7,1,1c0.1,0,0.1,0.1,0.1,0.2c0,0,0,0-0.1,0.1
										h-0.1c-0.7-0.3-1.7-0.8-2.1-0.7c-0.5,0.2-1.3,0.5-1.8,0.2c-0.3-0.3-0.5-0.6-0.6-1c-0.2-0.5-0.7-0.7-1.2-0.7
										c-1.1,0.2-1.3,1.4-2.2,1.8c-0.3,0.1-0.6,0.1-0.9-0.1c-0.6-0.4-0.3-1.4-0.1-1.9c0.1-0.3,0.1-0.6,0-0.9
										c-0.3-0.8-1-0.4-1.5-0.6s-0.6-0.9-1-1.2c-0.2-0.2-0.5-0.2-0.8-0.4c-0.6-0.4-0.7-1.4-1.3-1.7s-1.4,0.4-2.2,0.2
										s-1-0.8-1.4-1.4s-0.9-1.2-1.6-1c-0.3,0.2-0.6,0.4-0.9,0.7l0,0c-0.2,0.2-0.6,0.2-0.7,0c-0.1-0.1-0.1-0.2-0.1-0.4
										c0-0.3-0.1-0.5-0.3-0.5c-0.1,0-0.2,0-0.2,0.1c-0.8,0.5-1,2-1.8,1.5s0.3-1.4,0.3-2s-0.7-1.5-1.4-0.8c-0.5,0.2-0.8,0.3-1,0.2
										c-0.7-0.3,0.1-1.2-0.3-1.6c-0.2-0.2-0.7,0-1-0.1c-0.5-0.1-0.7-0.9-0.6-1.4c0-0.2,0-0.4,0-0.6c-0.3-1-1.2-0.7-1.9-0.8
										c-0.8-0.2-1.5-0.7-2-1.3c-0.8-0.6-1.8-1.2-2.7-0.5c-0.2,0.2-0.5,0.2-0.8,0.2c-0.8-0.2-0.5-1-0.6-1.6
										c-0.1-0.7-0.8-1.1-1.5-1c-0.2,0-0.4,0.1-0.5,0.3c-0.3,0.2-0.4,0.6-0.8,0.7c-0.4,0.1-0.9-0.1-1-0.6v-0.1
										c-0.1-0.6,0.4-1.1,0.3-1.7c-0.1-1.2-2-1.4-2.2-2.6C26.3,38.3,26.3,38.1,26.3,38.1z"/>
								</g>
							</g>
						</g>
					</g>
				</g>
				<path class="st21" d="M106.9,116c0,0-46.5-30.8-16.1-81.2H72.5c-7.4,16-11.7,29.5-10,40.8C64.8,91.5,73.1,106,85.7,116H106.9z"
					/>
			</g>
		</g>
		<g id="right-wing">
			<path id="BG-3" class="st49" d="M168,116c0,0,46.5-30.8,16.1-81.2h18.3c7.4,16,11.7,29.5,10,40.8c-2.3,15.9-10.6,30.3-23.2,40.3
				L168,116L168,116z"/>
			<g id="inside-art-2">
				<g>
					<g>
						<g>
							<defs>
								<path id="SVGID_17_" d="M167.8,116c0,0,46.5-30.8,16.1-81.2h18.3c7.4,16,11.7,29.5,10,40.8c-2.3,16-10.6,30.4-23.2,40.4
									C189,116,167.8,116,167.8,116z"/>
							</defs>
							<clipPath id="SVGID_18_">
								<use xlink:href="#SVGID_17_"  style="overflow:visible;"/>
							</clipPath>
							<g class="st52">
								<g id="Stripes-2">
									
										<rect x="122.3" y="40.1" transform="matrix(0.8684 -0.4959 0.4959 0.8684 0.6629 91.0973)" class="st4" width="99.3" height="8.4"/>
									
										<rect x="129.4" y="52.5" transform="matrix(0.8684 -0.4959 0.4959 0.8684 -4.5507 96.2492)" class="st4" width="99.3" height="8.4"/>
									
										<rect x="136.4" y="64.8" transform="matrix(0.8684 -0.4959 0.4959 0.8684 -9.73 101.3382)" class="st4" width="99.3" height="8.4"/>
									
										<rect x="144.6" y="76.5" transform="matrix(0.8684 -0.4959 0.4959 0.8684 -14.4496 106.9522)" class="st4" width="99.3" height="8.4"/>
									
										<rect x="151.6" y="88.9" transform="matrix(0.8684 -0.4959 0.4959 0.8684 -19.6846 112.0453)" class="st4" width="99.3" height="8.4"/>
									
										<rect x="158.7" y="101.2" transform="matrix(0.8684 -0.4959 0.4959 0.8684 -24.8422 117.1918)" class="st4" width="99.3" height="8.4"/>
									
										<rect x="165.7" y="113.5" transform="matrix(0.8684 -0.4959 0.4959 0.8684 -30.022 122.2784)" class="st4" width="99.3" height="8.4"/>
									
										<rect x="172.8" y="125.9" transform="matrix(0.8684 -0.4959 0.4959 0.8684 -35.2356 127.4303)" class="st4" width="99.3" height="8.4"/>
									
										<rect x="179.8" y="138.2" transform="matrix(0.8684 -0.4959 0.4959 0.8684 -40.4155 132.517)" class="st4" width="99.3" height="8.4"/>
								</g>
								<g id="snow-2">
									<path class="st51" d="M178.1,116.2c0.7-0.6,1.5-1.2,2.4-1.8c1.6-1,3.5-1.3,5.1-2.2s2.9-2.1,4.5-3c1.1-0.6,2.2-0.9,3.3-1.5
										c0.9-0.4,1.6-1,2.4-1.5c1.5-0.8,3.1-1.4,4.8-1.6c1.7,0,1.3,1.6,1.7,2.6c0.6,1.2,1.2,2.5,1.6,3.8c0.1,0.2-0.4,0.5-0.6,0.3
										c-0.8-0.6-0.3-1-0.7-1.5c-0.1-0.2-0.4-0.3-0.6-0.3c-0.2,0-0.4,0.1-0.7,0.1c-0.6,0.1-0.8-0.5-1.1-0.9
										c-0.6-0.7-1.6-0.7-2.3-0.1c-0.6,0.6-0.4,1.3-1,1.9c-0.6,0.5-1.5,0.6-2.3,0.4c-0.7-0.3-1.5-0.3-2.2-0.1
										c-0.1,0-0.2,0.1-0.3,0.2s-0.1,0.3-0.1,0.4c-0.1,0.2-0.3,0.3-0.5,0.3l0,0c-0.2-0.1-0.5-0.2-0.7-0.2c-0.3,0-0.6,0.2-0.9,0.4
										c-0.6,0.8,1.3,1.2,0.6,2c-0.3,0.3-0.7,0.4-1.1,0.4c-0.9-0.2-0.7-1.2-1.4-1.5c-0.3-0.1-0.6,0-0.9,0.1
										c-0.7,0.4-0.4,1.1-1,1.6s-1.4,0-2.1,0.1s-1.3,1.1-2.1,1.5c-0.5,0.2-1.1,0.3-1.7,0.3c-0.8,0.1-1.5,0.4-2.2,0.8
										c-0.3,0.2-0.6,0.4-1,0.6c-0.2,0-0.5,0-0.8,0c-0.5,0-1,0.4-1.6,0.5c-0.1,0-0.2-0.1-0.1-0.2
										C175.7,117.8,177.3,116.8,178.1,116.2z"/>
									<path class="st51" d="M208.1,93.4c-1,0.6-2,1-3.2,1.1c-0.6,0.1-2.4,0.2-2.9,0.6s-0.7,0.8-1.1,1.2c-1.1,1.1-2.9,0.8-4.4,1.4
										c-2,0.9-2.9,3.6-5,4.4c-0.8,0.2-1.7,0.4-2.5,0.7c-0.5,0.3-1,0.6-1.4,1c-1.7,1.2-4.1,1-6,2c-2.6,1.3-3.9,4.6-6.6,5.6
										c-1.2,0.5-2.6,0.5-3.7,1.2s-1.9,2-2.9,3.1c-0.3,0.4-0.6,0.7-1,1c-0.1,0-0.1,0.1-0.1,0.2c0,0,0,0,0.1,0.1h0.1
										c0.7-0.3,1.7-0.8,2.1-0.7s1.3,0.5,1.8,0.2c0.3-0.3,0.5-0.7,0.6-1.1c0.2-0.5,0.7-0.7,1.2-0.7c1.1,0.2,1.3,1.4,2.2,1.8
										c0.3,0.1,0.6,0.1,0.9-0.1c0.6-0.4,0.3-1.3,0.1-1.9c-0.1-0.3-0.1-0.6,0-0.9c0.3-0.8,1-0.4,1.5-0.6s0.6-0.9,1-1.2
										c0.2-0.2,0.6-0.2,0.8-0.4c0.6-0.4,0.6-1.4,1.3-1.7s1.4,0.4,2.2,0.2s1-0.8,1.4-1.4s0.9-1.2,1.6-1c0.4,0.1,0.6,0.4,0.9,0.7
										l0,0c0.2,0.2,0.5,0.2,0.7,0c0.1-0.1,0.1-0.2,0.1-0.4c0-0.3,0.1-0.5,0.4-0.5c0.1,0,0.2,0,0.2,0.1c0.8,0.5,1,2,1.8,1.5
										s-0.3-1.4-0.3-2s0.7-1.5,1.4-0.8c0.2,0.2,0.4,0.2,0.7,0.1c0.7-0.3-0.1-1.2,0.3-1.6c0.2-0.2,0.7,0,1-0.1
										c0.5-0.1,0.7-0.9,0.6-1.4c0-0.2,0-0.4,0-0.7c0.3-1,1.2-0.7,1.9-0.8c0.8-0.2,1.5-0.7,2-1.3c0.8-0.6,1.8-1.2,2.7-0.5
										c0.2,0.2,0.5,0.2,0.8,0.2c0.8-0.2,0.5-1,0.6-1.6c0.2-0.7,0.8-1.1,1.5-0.9c0.2,0,0.4,0.1,0.5,0.2c0.3,0.2,0.4,0.6,0.8,0.7
										c0.4,0.1,0.9-0.1,1-0.5v-0.1c0.1-0.6-0.4-1.1-0.3-1.7c0.1-1.2,1.9-1.4,2.2-2.6C208.1,93.6,208.1,93.4,208.1,93.4z"/>
									<path class="st51" d="M202.6,86.6c-1.1,0.4-2.1,0.8-3.1,1.2c-1.9,1-3.4,2.5-5.3,3.6s-3.8,1.6-5.6,2.6
										c-1.2,0.7-2.2,1.6-3.4,2.2c-1,0.6-2,1-2.9,1.5c-1.7,0.9-3.2,2.2-4.5,3.6c-1.1,1.6,0.6,2,1.2,2.9c0.7,1.2,1.5,2.4,2.4,3.4
										c0.2,0.2,0.7-0.1,0.7-0.3c0-1.1-0.7-0.8-0.9-1.4c-0.1-0.2,0-0.5,0.1-0.7c0.2-0.2,0.3-0.4,0.5-0.6c0.5-0.6,0.1-1-0.1-1.4
										c-0.2-1,0.4-1.9,1.4-2.1c0.9-0.2,1.5,0.3,2.4,0s1.5-1,1.8-1.9c0.2-0.8,0.7-1.6,1.3-2.1c0.1-0.1,0.2-0.1,0.4-0.2
										c0.2,0,0.3,0,0.5,0.1s0.5-0.1,0.6-0.3c0-0.3,0.1-0.5,0.3-0.8s0.6-0.5,0.9-0.6c1.1-0.1,0.3,1.8,1.5,1.6
										c0.4-0.1,0.8-0.4,1-0.8c0.3-0.9-0.7-1.2-0.4-2.1c0.1-0.3,0.4-0.6,0.7-0.8c0.8-0.4,1.3,0.2,2.1-0.1s0.8-1.3,1.5-1.9
										s1.9-0.7,2.8-1.2c0.5-0.4,1-0.9,1.4-1.4c0.6-0.7,1.4-1.2,2.2-1.6c0.4-0.2,0.8-0.4,1.2-0.6c0.2-0.2,0.4-0.4,0.5-0.7
										c0.3-0.5,1-0.8,1.5-1.2c0.1-0.1,0-0.2-0.1-0.2C205.6,85.3,203.7,86.2,202.6,86.6z"/>
									<path class="st51" d="M242.8,57.6c-1.1,0.8-1.7,0.8-3.2,1.1c-0.6,0.1-2.4,0.2-2.9,0.6s-0.7,0.8-1,1.2
										c-1.1,1.1-3,0.8-4.4,1.4c-2,0.9-2.9,3.6-5,4.4c-0.8,0.2-1.7,0.4-2.5,0.7c-0.5,0.3-0.9,0.6-1.4,1c-1.7,1.2-4.1,1-5.9,2
										c-2.6,1.3-3.9,4.6-6.6,5.6c-1.2,0.5-2.6,0.5-3.7,1.2s-1.9,2-2.9,3.1c-0.3,0.4-0.6,0.7-1,1c-0.1,0-0.1,0.1-0.1,0.2
										c0,0,0,0,0.1,0.1h0.1c0.7-0.3,1.7-0.9,2.1-0.7s1.3,0.5,1.8,0.2c0.3-0.3,0.5-0.7,0.6-1.1c0.2-0.5,0.7-0.7,1.2-0.7
										c1.1,0.2,1.3,1.4,2.2,1.8c0.3,0.1,0.6,0.1,0.9-0.1c0.6-0.4,0.3-1.3,0.1-1.9c-0.1-0.3-0.1-0.6,0-0.9c0.3-0.8,1-0.4,1.5-0.6
										s0.6-0.9,1-1.2c0.2-0.2,0.6-0.2,0.8-0.4c0.6-0.4,0.6-1.4,1.3-1.7s1.4,0.4,2.2,0.2s1-0.8,1.4-1.4s0.9-1.2,1.6-1
										c0.3,0.2,0.7,0.4,0.9,0.7l0,0c0.2,0.2,0.5,0.2,0.7,0c0.1-0.1,0.1-0.2,0.1-0.4c0-0.3,0.1-0.5,0.4-0.5c0.1,0,0.2,0,0.2,0.1
										c0.8,0.5,1,2,1.8,1.5s-0.3-1.4-0.3-2s0.7-1.5,1.4-0.8c0.2,0.2,0.4,0.2,0.7,0.1c0.7-0.3-0.1-1.2,0.3-1.6
										c0.2-0.2,0.7,0,1-0.1c0.5-0.1,0.7-0.9,0.6-1.4c0-0.2,0-0.4,0-0.6c0.3-1,1.2-0.7,1.9-0.8c0.8-0.3,1.5-0.7,2-1.3
										c0.8-0.7,1.8-1.2,2.7-0.5c0.2,0.2,0.5,0.3,0.8,0.2c0.8-0.2,0.5-1,0.6-1.6c0.2-0.7,0.8-1.1,1.5-0.9c0.2,0,0.4,0.1,0.5,0.2
										c0.3,0.2,0.4,0.6,0.8,0.7c0.4,0.1,0.9-0.2,1-0.6c0,0,0,0,0-0.1c0.1-0.6-0.4-1.1-0.3-1.7c0.1-1.2,1.9-1.4,2.2-2.6
										C242.8,57.8,242.8,57.6,242.8,57.6z"/>
									<path class="st51" d="M210.7,66.5c-1.1,0.8-1.7,0.8-3.2,1.1c-0.6,0.1-2.4,0.2-2.9,0.6s-0.7,0.8-1,1.2
										c-1.1,1.1-3,0.8-4.4,1.4c-2,0.9-2.9,3.6-5,4.4c-0.8,0.2-1.7,0.4-2.5,0.7c-0.5,0.3-0.9,0.6-1.4,1c-1.7,1.2-4.1,1-6,2
										c-2.6,1.3-3.9,4.6-6.6,5.6c-1.2,0.5-2.6,0.5-3.7,1.2s-1.9,2-2.9,3.1c-0.3,0.4-0.6,0.7-1,1c-0.1,0-0.1,0.1-0.1,0.2
										c0,0,0,0,0.1,0.1h0.1c0.7-0.3,1.7-0.8,2.1-0.7s1.3,0.5,1.8,0.2c0.3-0.3,0.5-0.7,0.6-1.1c0.2-0.5,0.7-0.7,1.2-0.7
										c1.1,0.2,1.3,1.4,2.2,1.8c0.3,0.1,0.6,0.1,0.9-0.1c0.6-0.4,0.3-1.3,0.1-1.9c-0.1-0.3-0.1-0.6,0-0.9c0.3-0.8,1-0.4,1.5-0.6
										s0.6-0.9,1-1.2c0.2-0.2,0.6-0.2,0.8-0.4c0.6-0.4,0.6-1.4,1.3-1.7s1.4,0.4,2.2,0.2s1-0.8,1.4-1.4s0.9-1.2,1.6-1
										c0.4,0.1,0.6,0.5,0.9,0.7l0,0c0.2,0.2,0.5,0.2,0.7,0c0.1-0.1,0.1-0.2,0.1-0.4c0-0.3,0.1-0.5,0.4-0.5c0.1,0,0.2,0,0.2,0.1
										c0.8,0.5,1,2,1.8,1.5s-0.3-1.4-0.3-2s0.7-1.5,1.4-0.8c0.2,0.2,0.4,0.2,0.7,0.2c0.7-0.3-0.1-1.2,0.3-1.6
										c0.2-0.2,0.7,0,1-0.1c0.5-0.1,0.7-0.9,0.6-1.4c0-0.2,0-0.4,0-0.7c0.3-1,1.2-0.7,1.9-0.8c0.8-0.3,1.5-0.7,2-1.3
										c0.8-0.7,1.8-1.2,2.7-0.5c0.2,0.2,0.5,0.2,0.8,0.2c0.8-0.2,0.5-1,0.6-1.6c0.2-0.7,0.8-1.1,1.5-0.9c0.2,0,0.4,0.1,0.5,0.2
										c0.3,0.2,0.4,0.6,0.8,0.7c0.4,0.1,0.9-0.1,1-0.6v-0.1c0.1-0.6-0.4-1.1-0.3-1.7c0.1-1.2,1.9-1.4,2.2-2.6
										C210.7,66.7,210.7,66.6,210.7,66.5z"/>
									<path class="st51" d="M248.4,38.1c-1.1,0.8-1.7,0.8-3.2,1.1c-0.6,0.1-2.4,0.2-2.9,0.6s-0.7,0.8-1,1.2
										c-1.1,1.1-3,0.8-4.4,1.4c-2.1,0.9-2.9,3.6-5,4.4c-0.8,0.2-1.7,0.4-2.5,0.7c-0.5,0.3-1,0.6-1.4,1c-1.7,1.2-4.1,1-6,2
										c-2.6,1.3-3.9,4.5-6.6,5.6c-1.2,0.5-2.6,0.5-3.7,1.2s-1.9,2-2.9,3c-0.3,0.4-0.6,0.7-1,1c-0.1,0-0.1,0.1-0.1,0.2
										c0,0,0,0,0.1,0.1h0.1c0.7-0.3,1.7-0.8,2.1-0.7s1.3,0.5,1.8,0.2c0.3-0.3,0.5-0.7,0.6-1.1c0.2-0.5,0.7-0.7,1.2-0.7
										c1.1,0.2,1.3,1.4,2.2,1.8c0.3,0.1,0.6,0.1,0.9-0.1c0.6-0.4,0.3-1.4,0.1-1.9c-0.1-0.3-0.1-0.6,0.1-0.9
										c0.3-0.8,1-0.4,1.4-0.6s0.6-0.9,1-1.2c0.2-0.2,0.6-0.2,0.8-0.4c0.6-0.4,0.6-1.4,1.3-1.7s1.4,0.4,2.2,0.2s1-0.8,1.4-1.4
										s0.9-1.2,1.6-1c0.3,0.2,0.6,0.4,0.9,0.7l0,0c0.2,0.2,0.6,0.2,0.7,0c0.1-0.1,0.1-0.2,0.1-0.4c0-0.3,0.1-0.5,0.4-0.5
										c0.1,0,0.2,0,0.2,0.1c0.8,0.5,1,2,1.9,1.5s-0.3-1.4-0.3-2s0.7-1.5,1.4-0.8c0.2,0.2,0.4,0.2,0.7,0.1
										c0.7-0.3-0.1-1.2,0.3-1.6c0.2-0.2,0.7,0,1-0.1c0.5-0.1,0.7-0.9,0.6-1.4c0-0.2,0-0.4,0.1-0.6c0.3-1,1.2-0.7,1.9-0.8
										c0.8-0.2,1.5-0.7,2-1.3c0.8-0.6,1.8-1.2,2.7-0.5c0.2,0.2,0.5,0.2,0.8,0.2c0.8-0.2,0.5-1,0.6-1.6c0.1-0.7,0.8-1.1,1.5-1
										c0.2,0,0.4,0.1,0.5,0.3c0.3,0.2,0.4,0.6,0.8,0.7c0.4,0.1,0.9-0.1,1-0.6v-0.1c0.1-0.6-0.4-1.1-0.3-1.7
										C246.2,39.5,248.1,39.3,248.4,38.1C248.4,38.3,248.4,38.1,248.4,38.1z"/>
								</g>
							</g>
						</g>
					</g>
				</g>
				<path class="st21" d="M167.8,116c0,0,46.5-30.8,16.1-81.2h18.3c7.4,16,11.7,29.5,10,40.8c-2.3,16-10.6,30.4-23.2,40.4
					C189,116,167.8,116,167.8,116z"/>
			</g>
		</g>
		<g id="ribbon">
			<g id="ribbon_ending">
				<g id="right">
					<path class="st53" d="M165.8,139.9c0,0,6.7,2.3,21.6,1.9c0,0-7.3-3.8-9.2-6.5c3.3-0.7,6.4-2.1,9.2-3.9c0,0-13.9-1.4-21.6-4
						V139.9z"/>
					<path class="st54" d="M165.8,139.6c0,0,6.2,2.1,20.1,1.8c0,0-6.8-3.6-8.6-6.1c3.1-0.7,6-1.9,8.6-3.7c0,0-12.9-1.3-20.1-3.8
						V139.6z"/>
				</g>
				<g id="left">
					<path class="st53" d="M108.9,125c0,0-6.8-2.3-21.8-1.9c0,0,7.4,3.9,9.3,6.6c-3.3,0.7-6.4,2.1-9.3,4c0,0,14,1.4,21.8,4.1
						C108.9,137.8,108.9,125,108.9,125z"/>
					<path class="st54" d="M108.9,125.4c0,0-6.2-2.1-20.1-1.8c0,0,6.8,3.6,8.6,6.1c-3.1,0.7-6,1.9-8.6,3.7c0,0,12.9,1.3,20.1,3.8
						V125.4z"/>
				</g>
			</g>
			<g id="top-bottom-curves">
				<path class="st54" d="M165.8,135.6v4c0,0,5.3,1.3,6-0.9C172.6,136.3,165.8,135.6,165.8,135.6z"/>
				<path class="st55" d="M165.6,135.6v4c0,0,5.6,1.3,6.4-0.9C172.9,136.3,165.6,135.6,165.6,135.6z"/>
				<path class="st54" d="M108.9,129.4v-4c0,0-5.3-1.3-6.1,0.9C102,128.7,108.9,129.4,108.9,129.4z"/>
				<path class="st55" d="M109,129.4v-4c0,0-5.6-1.3-6.3,0.9C101.8,128.7,109,129.4,109,129.4z"/>
			</g>
			<path id="stroke" class="st53" d="M171.9,138.1c-23-11.6-46.1,11.6-69.1,0v-11.6c23,11.6,46.1-11.6,69.1,0V138.1z"/>
			<path id="bg-4" class="st54" d="M171.9,137.8c-23-10.9-46.1,10.9-69.1,0v-10.9c23,10.9,46.1-10.9,69.1,0V137.8z"/>
			<g>
				<g class="st31">
					<text transform="matrix(0.9993 3.699253e-02 -3.699253e-02 0.9993 112.92 138.77)" class="st32 st56 st57">D</text>
					<text transform="matrix(0.9939 -0.1104 0.1104 0.9939 119.9997 138.9296)" class="st32 st56 st58">U</text>
					<text transform="matrix(0.977 -0.2132 0.2132 0.977 128.88 137.71)" class="st32 st56 st57">Q</text>
					<text transform="matrix(0.973 -0.2307 0.2307 0.973 135.59 136.2196)" class="st32 st56 st59">U</text>
					<text transform="matrix(0.9792 -0.2031 0.2031 0.9792 141.84 134.7407)" class="st32 st56 st60"></text>
					<text transform="matrix(0.9897 -0.143 0.143 0.9897 147.21 133.61)" class="st32 st56 st57">B</text>
					<text transform="matrix(0.999 -4.483992e-02 4.483992e-02 0.999 152.82 132.8)" class="st32 st56 st57">E</text>
					<text transform="matrix(0.996 8.963770e-02 -8.963770e-02 0.996 158.1793 132.5493)" class="st32 st56 st61">C</text>
					<text transform="matrix(0.9993 3.699253e-02 -3.699253e-02 0.9993 112.92 138.77)" class="st32 st56 st57">D</text>
					<text transform="matrix(0.9939 -0.1104 0.1104 0.9939 119.9997 138.9296)" class="st32 st56 st58">U</text>
					<text transform="matrix(0.977 -0.2132 0.2132 0.977 128.88 137.71)" class="st32 st56 st57">Q</text>
					<text transform="matrix(0.973 -0.2307 0.2307 0.973 135.59 136.2196)" class="st32 st56 st59">U</text>
					<text transform="matrix(0.9792 -0.2031 0.2031 0.9792 141.84 134.7407)" class="st32 st56 st60"></text>
					<text transform="matrix(0.9897 -0.143 0.143 0.9897 147.21 133.61)" class="st32 st56 st57">B</text>
					<text transform="matrix(0.999 -4.483992e-02 4.483992e-02 0.999 152.82 132.8)" class="st32 st56 st57">E</text>
					<text transform="matrix(0.996 8.963770e-02 -8.963770e-02 0.996 158.1793 132.5493)" class="st32 st56 st61">C</text>
				</g>
				<g>
					<text transform="matrix(0.9993 3.699253e-02 -3.699253e-02 0.9993 112.77 138.63)" class="st55 st56 st57">D</text>
					<text transform="matrix(0.9939 -0.1104 0.1104 0.9939 119.8499 138.7793)" class="st55 st56 st58">U</text>
					<text transform="matrix(0.977 -0.2132 0.2132 0.977 128.74 137.5699)" class="st55 st56 st57">Q</text>
					<text transform="matrix(0.973 -0.2307 0.2307 0.973 135.4501 136.0701)" class="st55 st56 st59">U</text>
					<text transform="matrix(0.9792 -0.2031 0.2031 0.9792 141.6902 134.6003)" class="st55 st56 st60"></text>
					<text transform="matrix(0.9897 -0.143 0.143 0.9897 147.0701 133.47)" class="st55 st56 st57">B</text>
					<text transform="matrix(0.999 -4.483992e-02 4.483992e-02 0.999 152.68 132.66)" class="st55 st56 st57">E</text>
					<text transform="matrix(0.996 8.963770e-02 -8.963770e-02 0.996 158.0398 132.3995)" class="st55 st56 st61">C</text>
					<text transform="matrix(0.9993 3.699253e-02 -3.699253e-02 0.9993 112.77 138.63)" class="st62 st56 st57">D</text>
					<text transform="matrix(0.9939 -0.1104 0.1104 0.9939 119.8499 138.7793)" class="st62 st56 st58">U</text>
					<text transform="matrix(0.977 -0.2132 0.2132 0.977 128.74 137.5699)" class="st62 st56 st57">Q</text>
					<text transform="matrix(0.973 -0.2307 0.2307 0.973 135.4501 136.0701)" class="st62 st56 st59">U</text>
					<text transform="matrix(0.9792 -0.2031 0.2031 0.9792 141.6902 134.6003)" class="st62 st56 st60"></text>
					<text transform="matrix(0.9897 -0.143 0.143 0.9897 147.0701 133.47)" class="st62 st56 st57">B</text>
					<text transform="matrix(0.999 -4.483992e-02 4.483992e-02 0.999 152.68 132.66)" class="st62 st56 st57">E</text>
					<text transform="matrix(0.996 8.963770e-02 -8.963770e-02 0.996 158.0398 132.3995)" class="st62 st56 st61">C</text>
				</g>
			</g>
		</g>
	</g>
</g>
</svg>
