<?xml version="1.0" encoding="utf-8"?>
<!-- Generator: Adobe Illustrator 25.1.0, SVG Export Plug-In . SVG Version: 6.00 Build 0)  -->
<svg version="1.1" id="parent-logo" xmlns="http://www.w3.org/2000/svg" xmlns:xlink="http://www.w3.org/1999/xlink" x="0px"
	 y="0px" viewBox="0 0 104.3 96.3" style="enable-background:new 0 0 104.3 96.3;" xml:space="preserve">
<style type="text/css">
	.st0{fill:#C7931B;stroke:#243456;stroke-width:0.5;stroke-miterlimit:10;}
	.st1{fill:#D62339;}
	.st2{fill:none;stroke:#243456;stroke-width:0.25;stroke-miterlimit:10;}
	.st3{display:none;opacity:0.4;}
	.st4{display:inline;}
	.st5{fill:none;stroke:#000000;stroke-width:0.25;stroke-miterlimit:10;}
	.st6{display:none;}
	.st7{display:inline;opacity:0.4;}
	.st8{opacity:0.2;}
	.st9{fill:url(#SVGID_1_);}
	.st10{opacity:0.27;}
	.st11{fill:url(#SVGID_2_);}
	.st12{opacity:0.75;}
	.st13{fill:#BFBFBF;}
	.st14{font-family:'FrizQua-ReguOS';}
	.st15{font-size:15.8412px;}
	.st16{font-size:15.84px;}
	.st17{font-size:15.8386px;}
	.st18{font-size:15.8388px;}
	.st19{font-size:15.8391px;}
	.st20{font-size:15.7373px;}
	.st21{fill:#FFFFFF;}
	.st22{fill:#243456;}
	.st23{display:inline;fill:none;stroke:#000000;stroke-width:0.25;stroke-miterlimit:10;}
	.st24{display:inline;stroke:#000000;stroke-width:0.25;stroke-miterlimit:10;}
	.st25{fill:#F1F2F2;stroke:#243456;stroke-miterlimit:10;}
	.st26{display:none;opacity:0.66;}
	.st27{stroke:#000000;stroke-miterlimit:10;}
	.st28{clip-path:url(#SVGID_4_);}
	.st29{fill:#C7931B;stroke:#243456;stroke-width:0.25;stroke-miterlimit:10;}
</style>
<path id="BG" class="st0" d="M0.2,49.3c0-25.4,18.2-49.1,52.5-49.1c28,0,51.3,18.8,51.3,49.1 M0.2,49.3C0.2,73.4,20.1,96,52.8,96
	c26.9,0,51.3-17.7,51.3-46.7"/>
<g id="bottom_1_">
	<g>
		<g>
			<g>
				<path class="st1" d="M82.2,50.2c-0.6,16.1-14.5,24.3-29.8,24.3c-18.5,0-29.9-10.8-30.5-24.3H4.1c0,22.3,18.3,41.7,48.5,41.7
					c23.1,0,47.3-14.9,47.3-41.7H82.2z"/>
				<path class="st2" d="M82.2,50.2c-0.6,16.1-14.5,24.3-29.8,24.3c-18.5,0-29.9-10.8-30.5-24.3H4.1c0,22.3,18.3,41.7,48.5,41.7
					c23.1,0,47.3-14.9,47.3-41.7H82.2z"/>
			</g>
		</g>
		<g class="st3">
			<g class="st4">
				<path d="M82.2,50.2c-0.6,16.1-14.5,24.3-29.8,24.3c-18.5,0-29.9-10.8-30.5-24.3H4.1c0,22.3,18.3,41.7,48.5,41.7
					c23.1,0,47.3-14.9,47.3-41.7H82.2z"/>
				<path class="st5" d="M82.2,50.2c-0.6,16.1-14.5,24.3-29.8,24.3c-18.5,0-29.9-10.8-30.5-24.3H4.1c0,22.3,18.3,41.7,48.5,41.7
					c23.1,0,47.3-14.9,47.3-41.7H82.2z"/>
			</g>
		</g>
	</g>
	<g class="st6">
		<g class="st7">
			<path d="M82.2,50.2c-0.6,16.1-14.5,24.3-29.8,24.3c-18.5,0-29.9-10.8-30.5-24.3H4.1c0,22.3,18.3,41.7,48.5,41.7
				c23.1,0,47.3-14.9,47.3-41.7H82.2z"/>
			<path class="st5" d="M82.2,50.2c-0.6,16.1-14.5,24.3-29.8,24.3c-18.5,0-29.9-10.8-30.5-24.3H4.1c0,22.3,18.3,41.7,48.5,41.7
				c23.1,0,47.3-14.9,47.3-41.7H82.2z"/>
		</g>
	</g>
</g>
<g id="bottom-highlight-2" class="st8">
	
		<linearGradient id="SVGID_1_" gradientUnits="userSpaceOnUse" x1="2.94" y1="316.6906" x2="82.76" y2="316.6906" gradientTransform="matrix(1 0 0 -1 10.21 396.3)">
		<stop  offset="0" style="stop-color:#FFFFFF;stop-opacity:0"/>
		<stop  offset="4.000000e-02" style="stop-color:#FFFFFF;stop-opacity:0.12"/>
		<stop  offset="0.1" style="stop-color:#FFFFFF;stop-opacity:0.3"/>
		<stop  offset="0.17" style="stop-color:#FFFFFF;stop-opacity:0.47"/>
		<stop  offset="0.24" style="stop-color:#FFFFFF;stop-opacity:0.61"/>
		<stop  offset="0.32" style="stop-color:#FFFFFF;stop-opacity:0.73"/>
		<stop  offset="0.4" style="stop-color:#FFFFFF;stop-opacity:0.83"/>
		<stop  offset="0.5" style="stop-color:#FFFFFF;stop-opacity:0.91"/>
		<stop  offset="0.61" style="stop-color:#FFFFFF;stop-opacity:0.96"/>
		<stop  offset="0.75" style="stop-color:#FFFFFF;stop-opacity:0.99"/>
		<stop  offset="1" style="stop-color:#FFFFFF"/>
	</linearGradient>
	<path class="st9" d="M13.6,71.3c2,3.3,4.6,6.2,7.7,8.4c3,2.3,6.4,4.2,9.9,5.6c7.2,2.7,14.8,4,22.4,3.8c7.6-0.1,15.2-2,22-5.3
		c3.4-1.7,6.7-3.7,9.7-6.1c1.5-1.2,2.9-2.5,4.2-3.9s2.3-3.1,2.9-4.9c-0.5,1.9-1.4,3.6-2.7,5.1c-1.2,1.5-2.6,2.9-4.1,4.1
		c-9,7.6-20.3,11.8-32,12.1c-3.9,0.1-7.7-0.2-11.6-0.9c-3.8-0.6-7.6-1.7-11.2-3.2s-7-3.5-10-5.9C17.9,77.8,15.4,74.8,13.6,71.3z"/>
</g>
<g id="bottom-highlight-1" class="st10">
	
		<linearGradient id="SVGID_2_" gradientUnits="userSpaceOnUse" x1="9.4" y1="330.8207" x2="82.27" y2="330.8207" gradientTransform="matrix(1 0 0 -1 10.21 396.3)">
		<stop  offset="0" style="stop-color:#FFFFFF;stop-opacity:0"/>
		<stop  offset="1" style="stop-color:#FFFFFF"/>
	</linearGradient>
	<path class="st11" d="M92.4,53.2c-2.7,0.1-5.4,0.2-8.1,0.2l0.2-0.2c-0.2,3.7-1.6,7.3-3.9,10.2c-2.2,2.9-4.9,5.5-8,7.6
		c-3,2.1-6.3,3.8-9.7,5.1c-3.5,1.3-7.1,1.9-10.8,1.9c-7.4-0.3-14.5-2.7-20.6-7c-3-2.1-5.7-4.7-7.9-7.6c-2.2-2.9-3.5-6.4-3.8-10.1
		c0.4,3.6,1.8,7.1,4.1,9.9c2.2,2.9,4.9,5.4,7.9,7.4s6.3,3.7,9.7,4.8c3.4,1.2,7,1.8,10.6,1.9c3.6,0,7.2-0.6,10.6-1.9
		c3.4-1.2,6.6-2.9,9.6-4.9s5.6-4.5,7.9-7.4c2.3-2.8,3.6-6.2,3.9-9.8v-0.2h0.2C87.1,53,89.8,53.1,92.4,53.2z"/>
</g>
<g id="text">
	<g class="st12">
		<text transform="matrix(0.6963 0.7178 -0.7178 0.6963 12.8202 70.1191)" class="st13 st14 st15">W</text>
		<text transform="matrix(0.8823 0.4707 -0.4707 0.8823 26.4097 82.2701)" class="st13 st14 st16">I</text>
		<text transform="matrix(0.9634 0.2679 -0.2679 0.9634 32.1899 85.5808)" class="st13 st14 st17">N</text>
		<text transform="matrix(0.9999 1.343863e-02 -1.343863e-02 0.9999 46.31 89.13)" class="st13 st14 st16">D</text>
		<text transform="matrix(0.9727 -0.2319 0.2319 0.9727 60.0901 88.89)" class="st13 st14 st18">S</text>
		<text transform="matrix(0.8751 -0.484 0.484 0.8751 71.2 86.2702)" class="st13 st14 st19">O</text>
		<text transform="matrix(0.6441 -0.7649 0.7649 0.6441 85.1691 77.7308)" class="st13 st14 st20">R</text>
	</g>
	<g>
		<text transform="matrix(0.6963 0.7178 -0.7178 0.6963 12.4597 69.76)" class="st21 st14 st15">W</text>
		<text transform="matrix(0.8823 0.4707 -0.4707 0.8823 26.0499 81.91)" class="st21 st14 st16">I</text>
		<text transform="matrix(0.9634 0.2679 -0.2679 0.9634 31.8299 85.2207)" class="st21 st14 st17">N</text>
		<text transform="matrix(0.9999 1.343863e-02 -1.343863e-02 0.9999 45.95 88.77)" class="st21 st14 st16">D</text>
		<text transform="matrix(0.9727 -0.2319 0.2319 0.9727 59.7302 88.5301)" class="st21 st14 st18">S</text>
		<text transform="matrix(0.8751 -0.484 0.484 0.8751 70.8404 85.9109)" class="st21 st14 st19">O</text>
		<text transform="matrix(0.6441 -0.7649 0.7649 0.6441 84.8091 77.3715)" class="st21 st14 st20">R</text>
	</g>
</g>
<g id="top_1_">
	<g>
		<path class="st22" d="M100.6,48H82.2c-0.5-16.9-13.8-25.5-29.8-25.5c-19.5,0-30,11.3-30.5,25.5H4.1c0-13.3,3.5-24.8,15.2-33.3
			c2.6,3,4.2,4.7,6.8,7.7c3.2-2.7,7-4.7,11-5.9c-1.5-3.6-2.7-5.8-4.2-9.4c12.2-4.4,26.6-5.2,38.7,0c-1.6,3.6-2.6,6-4.1,9.6
			c4.8,1.9,7.1,3,10.9,6c2.9-2.8,4.5-4.6,7.4-7.4C97.1,23.7,99.9,35.7,99.9,48"/>
		<path class="st2" d="M100.6,48H82.2c-0.5-16.9-13.8-25.5-29.8-25.5c-19.5,0-30,11.3-30.5,25.5H4.1c0-13.3,3.5-24.8,15.2-33.3
			c2.6,3,4.2,4.7,6.8,7.7c3.2-2.7,7-4.7,11-5.9c-1.5-3.6-2.7-5.8-4.2-9.4c12.2-4.4,26.6-5.2,38.7,0c-1.6,3.6-2.6,6-4.1,9.6
			c4.8,1.9,7.1,3,10.9,6c2.9-2.8,4.5-4.6,7.4-7.4C97.1,23.7,99.9,35.7,99.9,48"/>
	</g>
	<g class="st3">
		<path class="st4" d="M100.6,48H82.2c-0.5-16.9-13.8-25.5-29.8-25.5c-19.5,0-30,11.3-30.5,25.5H4.1c0-13.3,3.5-24.8,15.2-33.3
			c2.6,3,4.2,4.7,6.8,7.7c3.2-2.7,7-4.7,11-5.9c-1.5-3.6-2.7-5.8-4.2-9.4c12.2-4.4,26.6-5.2,38.7,0c-1.6,3.6-2.6,6-4.1,9.6
			c4.8,1.9,7.1,3,10.9,6c2.9-2.8,4.5-4.6,7.4-7.4C97.1,23.7,99.9,35.7,99.9,48"/>
		<path class="st23" d="M100.6,48H82.2c-0.5-16.9-13.8-25.5-29.8-25.5c-19.5,0-30,11.3-30.5,25.5H4.1c0-13.3,3.5-24.8,15.2-33.3
			c2.6,3,4.2,4.7,6.8,7.7c3.2-2.7,7-4.7,11-5.9c-1.5-3.6-2.7-5.8-4.2-9.4c12.2-4.4,26.6-5.2,38.7,0c-1.6,3.6-2.6,6-4.1,9.6
			c4.8,1.9,7.1,3,10.9,6c2.9-2.8,4.5-4.6,7.4-7.4C97.1,23.7,99.9,35.7,99.9,48"/>
	</g>
	<g>
		<g class="st3">
			<path class="st24" d="M100.6,48H82.2c-0.5-16.9-13.8-25.5-29.8-25.5c-19.5,0-30,11.3-30.5,25.5H4.1c0-13.3,3.5-24.8,15.2-33.3
				c2.6,3,4.2,4.7,6.8,7.7c3.2-2.7,7-4.7,11-5.9c-1.5-3.6-2.7-5.8-4.2-9.4c12.2-4.4,26.6-5.2,38.7,0c-1.6,3.6-2.6,6-4.1,9.6
				c4.8,1.9,7.1,3,10.9,6c2.9-2.8,4.5-4.6,7.4-7.4C97.1,23.7,99.9,35.7,99.9,48"/>
		</g>
	</g>
</g>
<g id="inner_ellipse">
	<g>
		<g>
			<path id="top-3_15_" class="st25" d="M25.5,49c0-13,9.3-23.4,26.9-23.4c14.3,0,26.2,7.9,26.2,23.4"/>
			<path id="bottom-4_15_" class="st25" d="M25.5,49c0,12.3,10.1,22.4,26.9,22.4c13.7,0,26.2-7.6,26.2-22.4"/>
		</g>
	</g>
	<g class="st26">
		<g class="st4">
			<path id="top-3_12_" class="st27" d="M25.5,49c0-13,9.3-23.4,26.9-23.4c14.3,0,26.2,7.9,26.2,23.4"/>
			<path id="bottom-4_12_" class="st27" d="M25.5,49c0,12.3,10.1,22.4,26.9,22.4c13.7,0,26.2-7.6,26.2-22.4"/>
		</g>
	</g>
	<g>
		<g class="st26">
			<g class="st4">
				<path id="top-4" class="st27" d="M25.5,49c0-13,9.3-23.4,26.9-23.4c14.3,0,26.2,7.9,26.2,23.4"/>
				<path id="bottom-5" class="st27" d="M25.5,49c0,12.3,10.1,22.4,26.9,22.4c13.7,0,26.2-7.6,26.2-22.4"/>
			</g>
		</g>
	</g>
</g>
<path id="inner-highlight" class="st21" d="M28.3,54c0.2,2,0.9,3.8,2.1,5.4s2.5,3,4.1,4.2s3.2,2.3,4.9,3.2c1.7,0.9,3.6,1.7,5.5,2.1
	c-2-0.2-4-0.7-5.8-1.6c-1.8-0.8-3.6-1.9-5.2-3.1s-3-2.7-4.1-4.4C28.8,58.1,28.2,56.1,28.3,54z"/>
<g id="crystal">
	<g>
		<g>
			<defs>
				<path id="SVGID_3_" d="M25.5,49c0-13,9.3-23.4,26.9-23.4c14.3,0,26.2,7.9,26.2,23.4 M25.5,49c0,12.3,10.1,22.4,26.9,22.4
					c13.7,0,26.2-7.6,26.2-22.4"/>
			</defs>
			<clipPath id="SVGID_4_">
				<use xlink:href="#SVGID_3_"  style="overflow:visible;"/>
			</clipPath>
			<g class="st28">
				<g id="crystal-2">
					<path class="st29" d="M57.1,65.2c0,0,1.1-0.1,3.5,0s3.5,0,3.5,0l4.2-4v-3.4l-5.6,0.6L57.1,65.2z"/>
					<polygon class="st29" points="55.1,64.8 50.8,65 41.5,58.7 43.9,51.6 53.9,62.2 					"/>
					<polygon class="st29" points="48.6,65.2 46.6,65.2 44.6,65.2 40.6,65.2 33.8,61.1 39.6,59.3 					"/>
					<polygon class="st29" points="33.5,59.3 40.1,57.6 42.4,50.8 35,51.2 					"/>
					<polygon class="st29" points="53.1,59.3 44.6,49.2 42.8,49.8 38,40.5 46.1,38.7 					"/>
					<polygon class="st29" points="55.6,63 55.8,42.6 54.4,31.8 47.1,38.2 					"/>
					<polygon class="st29" points="53.8,30.9 45.1,29.2 46.8,36.7 					"/>
					<polygon class="st29" points="43.6,30 45.4,37.2 37.8,39.2 					"/>
					<polygon class="st29" points="56.6,63.6 57.6,43.1 64.6,47.2 61.9,57.1 					"/>
					<polygon class="st29" points="57.8,41.9 64.9,45.7 65.1,38 					"/>
					<polygon class="st29" points="66.2,39 66.4,46.1 73.8,44.3 					"/>
					<polygon class="st29" points="66.1,47.6 74.2,45.7 68.1,56.8 63.4,57.2 					"/>
					<path class="st29" d="M52.6,69.5c-10.3,0-11.4-2.9-11.4-2.9h13.9L52.6,69.5z"/>
					<path class="st29" d="M56.6,66.5c4.2,0,7.5,0,7.5,0s-2.3,2.8-9.9,3L56.6,66.5z"/>
				</g>
			</g>
		</g>
	</g>
</g>
</svg>
